STARTFONT 2.1
COMMENT
COMMENT Converted from OpenType font "avar_it.otf" by "otf2bdf 3.0".
COMMENT
FONT -FreeType-Avara Bold-Medium-I-Normal--38-380-72-72-P-239-ISO10646-1
SIZE 38 72 72
FONTBOUNDINGBOX 53 53 -9 -12
STARTPROPERTIES 19
FOUNDRY "FreeType"
FAMILY_NAME "Avara Bold"
WEIGHT_NAME "Medium"
SLANT "I"
SETWIDTH_NAME "Normal"
ADD_STYLE_NAME ""
PIXEL_SIZE 38
POINT_SIZE 380
RESOLUTION_X 72
RESOLUTION_Y 72
SPACING "P"
AVERAGE_WIDTH 239
CHARSET_REGISTRY "ISO10646"
CHARSET_ENCODING "1"
FONT_ASCENT 31
FONT_DESCENT 12
COPYRIGHT "Created by Raphael Bastide with FontForge 2.0 (http://fontforge.sf.net). Edited by Wei Huang and Lucas Le Bihan"
_OTF_FONTFILE "avar_it.otf"
_OTF_PSNAME "Avara-BoldItalic"
ENDPROPERTIES
CHARS 208
STARTCHAR 0020
ENCODING 32
SWIDTH 315 0
DWIDTH 12 0
BBX 0 0 0 0
BITMAP
ENDCHAR
STARTCHAR 0021
ENCODING 33
SWIDTH 236 0
DWIDTH 9 0
BBX 15 30 2 0
BITMAP
007C
007E
00FC
00F8
00F8
01F0
01F0
01E0
03E0
03C0
03C0
0780
0780
0700
0700
0E00
0C00
0C00
1800
1800
1000
0000
0000
0000
7000
FC00
FC00
F800
F800
7000
ENDCHAR
STARTCHAR 0022
ENCODING 34
SWIDTH 447 0
DWIDTH 17 0
BBX 12 9 8 21
BITMAP
38E0
7DF0
7DF0
79E0
F3C0
E380
C300
8200
8400
ENDCHAR
STARTCHAR 0023
ENCODING 35
SWIDTH 684 0
DWIDTH 26 0
BBX 26 24 2 3
BITMAP
0000E1C0
0001C1C0
00038380
00038700
00070E00
000E0E00
01FFFF80
03FFFF80
03FFFF00
00387000
00707000
00E0E000
00E1C000
01C38000
03838000
3FFFF800
3FFFF000
7FFFF000
0E1C0000
1C1C0000
38380000
78700000
70E00000
E0E00000
ENDCHAR
STARTCHAR 0024
ENCODING 36
SWIDTH 605 0
DWIDTH 23 0
BBX 26 36 0 -3
BITMAP
00003000
00002000
000FE300
001FFF80
007FFF80
007CCF80
00F8C780
00F88380
00F181C0
00F180C0
00F900C0
00FF0000
00FF0000
007E0000
007F0000
007F0000
003F8000
003F8000
001FC000
001FC000
001FE000
0017E000
0017E000
0033E000
C021F000
C021F000
E061E000
F041E000
7041E000
78C3E000
7C87C000
7FFFC000
7FFF0000
71FC0000
41000000
03000000
ENDCHAR
STARTCHAR 0025
ENCODING 37
SWIDTH 763 0
DWIDTH 29 0
BBX 29 34 0 -2
BITMAP
00000038
00000070
007C00E0
03FE01C0
07CF01C0
078F0380
0F0F0700
0F0F8E00
1E0F0E00
3E1F1C00
3C1E3800
3C3E7000
3C3CF000
3C78E000
1E79C000
1FF38000
0F870000
00070F80
000E7FC0
001CF3C0
0038F1C0
0079E1E0
0073E1E0
00E3C1E0
01C7C3E0
038783C0
038F8780
07078780
0E078F00
1C079F00
1C03FE00
3803F800
70000000
E0000000
ENDCHAR
STARTCHAR 0026
ENCODING 38
SWIDTH 789 0
DWIDTH 30 0
BBX 30 30 2 0
BITMAP
0003E000
000FFC00
003E1E00
00FC1E00
01F00E70
03E00F70
07C00E60
0F8006E0
1F0000C0
1F0001C0
3F000180
7E000180
7E000700
7FFFFFFC
7DFFFFFC
FC001F00
FC001E00
FC003E00
FC007C00
FC007C00
FC00F830
FC01F870
7C01F0E0
7E03F1C0
3E07E380
3F0FE700
3F1DCE00
1FF9FC00
07F1F800
03C0E000
ENDCHAR
STARTCHAR 0027
ENCODING 39
SWIDTH 289 0
DWIDTH 11 0
BBX 6 9 8 21
BITMAP
38
7C
7C
78
F0
E0
C0
80
80
ENDCHAR
STARTCHAR 0028
ENCODING 40
SWIDTH 473 0
DWIDTH 18 0
BBX 18 35 3 -5
BITMAP
000180
000FC0
001E00
003800
00F000
01E000
03C000
078000
0F8000
0F0000
1F0000
3E0000
7E0000
7C0000
7C0000
7C0000
F80000
F80000
F80000
F80000
F80000
F80000
F80000
F80000
F80000
F80000
780000
780000
780000
3C0000
1C0000
1E0000
0E0000
070000
020000
ENDCHAR
STARTCHAR 0029
ENCODING 41
SWIDTH 473 0
DWIDTH 18 0
BBX 18 35 -3 -5
BITMAP
001000
001800
001C00
000E00
000E00
000700
000780
000380
000380
0003C0
0003C0
0003C0
0003C0
0003C0
0003C0
0003C0
0007C0
0007C0
0007C0
0007C0
000F80
000F80
001F80
001F00
003E00
003E00
007C00
007800
00F000
01E000
03C000
078000
1E0000
FC0000
600000
ENDCHAR
STARTCHAR 002A
ENCODING 42
SWIDTH 447 0
DWIDTH 17 0
BBX 13 14 2 21
BITMAP
0380
03C0
0380
0380
0310
F2F8
FFF8
FBF8
4630
0E00
0E00
1E00
1E00
0C00
ENDCHAR
STARTCHAR 002B
ENCODING 43
SWIDTH 605 0
DWIDTH 23 0
BBX 21 21 0 2
BITMAP
007000
007000
007000
007000
007000
007000
007000
007000
007000
FFFFF8
FFFFF8
FFFFF8
007000
007000
007000
007000
007000
007000
007000
007000
007000
ENDCHAR
STARTCHAR 002C
ENCODING 44
SWIDTH 236 0
DWIDTH 9 0
BBX 8 11 0 -5
BITMAP
1C
3F
3F
3F
3F
0E
0E
0C
1C
F8
F8
ENDCHAR
STARTCHAR 002D
ENCODING 45
SWIDTH 315 0
DWIDTH 12 0
BBX 9 3 2 9
BITMAP
FF80
FF80
FF80
ENDCHAR
STARTCHAR 002E
ENCODING 46
SWIDTH 210 0
DWIDTH 8 0
BBX 6 6 0 0
BITMAP
70
7C
FC
FC
F8
38
ENDCHAR
STARTCHAR 002F
ENCODING 47
SWIDTH 315 0
DWIDTH 12 0
BBX 20 32 -4 -3
BITMAP
000070
000070
0000E0
0000E0
0001C0
0001C0
000380
000700
000700
000E00
000E00
001C00
001C00
003800
007000
007000
00E000
00E000
01C000
01C000
038000
070000
070000
0E0000
0E0000
1C0000
1C0000
380000
700000
700000
E00000
E00000
ENDCHAR
STARTCHAR 0030
ENCODING 48
SWIDTH 684 0
DWIDTH 26 0
BBX 22 30 2 0
BITMAP
001F00
007FC0
01E1F0
07C0F8
078078
0F807C
1F007C
1F007C
3E003C
3E003C
7E007C
7E007C
7C007C
FC007C
FC00FC
FC00FC
F800FC
F800F8
F801F8
F801F8
F001F0
F001F0
F003E0
F803E0
F807C0
F80780
780F80
7C1F00
1F7C00
07F000
ENDCHAR
STARTCHAR 0031
ENCODING 49
SWIDTH 473 0
DWIDTH 18 0
BBX 18 30 -1 0
BITMAP
0000C0
000180
000380
000780
000F00
003F00
00FF00
03FE00
03FE00
003E00
003C00
007C00
007C00
007800
00F800
00F800
00F000
01F000
01F000
01E000
03E000
03E000
03C000
07C000
07C000
078000
0F8000
0F8000
3FC000
FFE000
ENDCHAR
STARTCHAR 0032
ENCODING 50
SWIDTH 631 0
DWIDTH 24 0
BBX 26 32 -3 -2
BITMAP
0007E000
001FF800
00783E00
01F00F00
01E00F80
01E00F80
03E00780
03E007C0
01E007C0
01E007C0
00E007C0
00600F80
00000F00
00001F00
00001E00
00003C00
00007800
0000F000
0001E000
0003C000
00078000
001E0600
003C0C00
00F01C00
01E01C00
07803C00
0E007800
3E00F800
7FF9F800
FFFFF000
0001F000
00003000
ENDCHAR
STARTCHAR 0033
ENCODING 51
SWIDTH 684 0
DWIDTH 26 0
BBX 24 31 0 0
BITMAP
000F80
003FE0
00FCF8
03F03E
03F01E
07E01E
07E01F
07E00F
03E00F
01E01E
00001E
00003C
0001FC
007FE0
00FE00
00FFC0
0003F0
0001F8
0000F8
180078
380078
780078
780078
F80078
F800F0
7801E0
7803C0
7C0780
3E1F00
0FFC00
03F000
ENDCHAR
STARTCHAR 0034
ENCODING 52
SWIDTH 631 0
DWIDTH 24 0
BBX 27 30 -1 0
BITMAP
0007C3E0
000783C0
000787C0
000787C0
000F0780
000F0F80
000F0F80
000E0F00
000E1F00
001C1F00
001C1E00
00383E00
00703E00
00703C00
00E07C00
03C07C00
07807800
0F80F800
1F00F800
3E00F000
FC01F000
FE01F000
7FF9E000
3FFFE000
0001E000
0003C000
0003C000
0007C000
001FE000
007FF000
ENDCHAR
STARTCHAR 0035
ENCODING 53
SWIDTH 631 0
DWIDTH 24 0
BBX 24 30 0 0
BITMAP
007FFF
00FFFF
00FFFE
00FFFE
01E000
01C000
03C000
038000
038000
070000
070400
0E3F80
0EFFE0
0FE3E0
1F81F0
0E00F8
000078
000078
180078
380078
780078
780078
F80078
F800F0
7801E0
7803C0
7C0780
3E1F00
0FFC00
03F000
ENDCHAR
STARTCHAR 0036
ENCODING 54
SWIDTH 684 0
DWIDTH 26 0
BBX 24 30 2 0
BITMAP
0007E0
001FF8
007C3E
00F81F
01F01F
03E01E
07C01C
0FC01C
1F8018
3F0000
3E0000
3E3F00
7CFFC0
7DFFE0
FB83E0
FF01F0
FE00F8
FC00F8
F800F8
F000F8
F000F8
F000F8
F000F8
F001F0
F803E0
F807C0
780F80
7C1F00
1F7C00
07F000
ENDCHAR
STARTCHAR 0037
ENCODING 55
SWIDTH 526 0
DWIDTH 20 0
BBX 23 30 0 0
BITMAP
1FFFFE
1FC006
1F000C
1F0018
1F0030
0F0070
0F00E0
0701C0
030380
000700
000700
000E00
001C00
003C00
007800
007000
00F000
01E000
01C000
03C000
07C000
078000
0F8000
0F8000
1F0000
1F0000
3F0000
3E0000
7E0000
FC0000
ENDCHAR
STARTCHAR 0038
ENCODING 56
SWIDTH 631 0
DWIDTH 24 0
BBX 24 30 0 0
BITMAP
0007C0
001FF8
007C3C
01F01E
01E00E
03E00F
03E00F
03E00F
03E00F
03E00F
01E01F
01E01E
00F07C
003BF0
01FF80
0FE700
1F01E0
3E00F0
7C00F8
7C0078
780078
F80078
F80078
F800F8
7800F0
7801E0
7C03E0
3C07C0
0F3E00
03F800
ENDCHAR
STARTCHAR 0039
ENCODING 57
SWIDTH 684 0
DWIDTH 26 0
BBX 24 31 0 0
BITMAP
000780
001FE0
007CF8
00F03E
01E01E
03C01E
07801F
0F000F
1F000F
1F000F
1F000F
1F001F
1F003F
1F007F
1F00EF
0F81DF
07C39E
07FF3E
03FE3E
00787C
0000FC
0000F8
3801F0
3803E0
7807C0
F80F80
F80F00
F81E00
7C7C00
1FF000
07C000
ENDCHAR
STARTCHAR 003A
ENCODING 58
SWIDTH 289 0
DWIDTH 11 0
BBX 11 20 0 0
BITMAP
0300
07C0
07E0
07E0
07C0
03C0
0000
0000
0000
0000
0000
0000
0000
0000
7000
7C00
FC00
FC00
F800
3800
ENDCHAR
STARTCHAR 003B
ENCODING 59
SWIDTH 315 0
DWIDTH 12 0
BBX 12 25 0 -5
BITMAP
01C0
01F0
03F0
03F0
03F0
01E0
0000
0000
0000
0000
0000
0000
0000
0000
1C00
3F00
3F00
3F00
3F00
0E00
0E00
0C00
1C00
F800
F800
ENDCHAR
STARTCHAR 003C
ENCODING 60
SWIDTH 473 0
DWIDTH 18 0
BBX 14 21 3 2
BITMAP
0010
0038
0078
00F8
03E0
07C0
0F00
3E00
7800
E000
C000
E000
F800
3C00
1F00
0F80
03E0
01F8
00FC
0038
0018
ENDCHAR
STARTCHAR 003D
ENCODING 61
SWIDTH 552 0
DWIDTH 21 0
BBX 18 9 2 8
BITMAP
FFFFC0
FFFFC0
FFFFC0
000000
000000
000000
FFFFC0
FFFFC0
FFFFC0
ENDCHAR
STARTCHAR 003E
ENCODING 62
SWIDTH 473 0
DWIDTH 18 0
BBX 13 21 2 2
BITMAP
4000
E000
F000
FC00
3E00
1F00
07C0
01E0
00F0
0038
0018
0038
0078
01E0
07C0
0F80
3E00
7C00
F800
E000
4000
ENDCHAR
STARTCHAR 003F
ENCODING 63
SWIDTH 526 0
DWIDTH 20 0
BBX 20 31 6 0
BITMAP
007800
03FF00
0FCF80
0F03C0
1E03E0
3E01E0
3C01F0
3C01F0
3C01F0
1C01F0
0C01E0
0003E0
0003C0
000F80
001F00
003C00
01F000
07C000
0E0000
0C0000
080000
180000
000000
000000
000000
700000
7C0000
FC0000
FC0000
F80000
380000
ENDCHAR
STARTCHAR 0040
ENCODING 64
SWIDTH 921 0
DWIDTH 35 0
BBX 33 32 0 -6
BITMAP
00007C0000
0003FF8000
001FC3E000
007E007800
00F8003C00
01E0001E00
03C0201F00
0780FC0F00
0F03FE6F00
1E07E76F80
1E1FC3EF80
3E3F03E780
3C3E01C780
3C3E01C780
787C03C780
787C038780
78F8078700
F8F80F8700
F8F00F0F00
78F81F0E00
7CF83F1E00
3CF87E3C00
3C7CEE7800
1E7FCFE000
1E7F8FC000
0E1F060000
0F80000000
07E0000000
01F8000000
007F000000
001FF80000
0000700000
ENDCHAR
STARTCHAR 0041
ENCODING 65
SWIDTH 789 0
DWIDTH 30 0
BBX 29 32 -1 0
BITMAP
00000020
00000060
000001E0
000003E0
000003E0
000003E0
000007E0
00000FE0
00001FE0
00001BE0
000033E0
000073E0
0000E3E0
0000C3E0
000183E0
000383E0
000703E0
000603E0
000E03E0
001C03E0
003C03E0
003FFFE0
007FFFE0
00E007E0
01C003E0
01C003E0
038003E0
070003E0
0E0003E0
1F0003E0
3F8007F0
FFC00FF8
ENDCHAR
STARTCHAR 0042
ENCODING 66
SWIDTH 763 0
DWIDTH 29 0
BBX 29 31 0 0
BITMAP
00FFF000
007FFF80
003F07E0
001E01F0
003E01F0
003E01F0
003C01F0
007C01F8
007C03F0
007803E0
00F807C0
00F80F80
00F00F00
00F07E00
01FFFC00
01EFFF80
01E03FC0
03E00FC0
03E00FE0
03C00FE0
07C007E0
07C007E0
078007E0
0F800FC0
0F800F80
0F001F80
1F003F00
1F00FE00
1F03FC00
3F8FE000
FFFF8000
ENDCHAR
STARTCHAR 0043
ENCODING 67
SWIDTH 710 0
DWIDTH 27 0
BBX 28 30 2 0
BITMAP
0003F800
000FFE00
003E0FC0
00FC07E0
01F003F0
03E003F0
07C003F0
0F8003E0
1F0003C0
1F000000
3F000000
7E000000
7E000000
7E000000
7C000000
FC000000
FC000000
FC000000
FC000000
FC000000
FC000000
FC000200
7C000700
7C000E00
3C001C00
3E003800
3E00F000
0F01E000
03FF8000
00FE0000
ENDCHAR
STARTCHAR 0044
ENCODING 68
SWIDTH 842 0
DWIDTH 32 0
BBX 33 30 -1 0
BITMAP
007FFF0000
003F81E000
001F007800
001F003C00
001F003E00
001E003E00
003E003E00
003E001F00
003C001F00
007C001F80
007C001F80
0078001F80
0078001F00
00F8001F00
00F8003F00
00F0003F00
01F0003F00
01F0007E00
01E0007E00
03E0007C00
03E000FC00
03C000F800
07C000F000
07C001E000
078003C000
0F80078000
0F800F0000
1F803E0000
3FC0F80000
FFFFE00000
ENDCHAR
STARTCHAR 0045
ENCODING 69
SWIDTH 710 0
DWIDTH 27 0
BBX 31 33 -1 -2
BITMAP
0000001C
007FFFFC
003FFFFC
001F803C
000F003E
001F001E
001F000E
001E0006
003E0006
003E0000
003C0000
007C0000
007C0400
00780400
00780C00
00FFFC00
00FFFC00
00F80C00
01F00400
01E00000
01E00000
03E00000
03C00000
03C00180
07C00180
07C00380
07800380
0F800780
0F800F80
1F800F00
3FC01F00
FFFFFF00
00000300
ENDCHAR
STARTCHAR 0046
ENCODING 70
SWIDTH 631 0
DWIDTH 24 0
BBX 31 32 -1 0
BITMAP
0000001C
007FFFFC
003FFFFC
001F803C
000F003E
001F001E
001F000E
001E0006
003E0006
003E0000
003C0000
007C0000
007C0400
00780400
00F80C00
00FFFC00
00FFFC00
00F00C00
01F00400
01E00000
01E00000
03E00000
03C00000
03C00000
07C00000
07C00000
07800000
0F800000
0F800000
1F800000
7FC00000
FFE00000
ENDCHAR
STARTCHAR 0047
ENCODING 71
SWIDTH 763 0
DWIDTH 29 0
BBX 28 30 2 0
BITMAP
0007F800
001F1E00
007E0FC0
00FC07E0
01F003F0
03E003F0
07C003F0
0F8003E0
1F0003C0
1F000000
3F000000
7E000000
7E000000
7E000000
7C000000
FC000000
FC000000
FC000000
FC003FE0
FC003FC0
FC001F80
FC001F00
7C001E00
7C003C00
7E003C00
3E003800
3F007000
1FC0E000
07E3C000
01FF0000
ENDCHAR
STARTCHAR 0048
ENCODING 72
SWIDTH 921 0
DWIDTH 35 0
BBX 41 30 -1 0
BITMAP
007FF003FF80
003FE001FF00
001F8000FC00
001F00007800
001F0000F800
001E0000F800
001E0000F000
003E0001F000
003C0001F000
003C0001E000
007C0003E000
00780003E000
00780003E000
00F80007C000
00FFFFFFC000
00F8000FC000
01F0000F8000
01E0000F8000
01E0000F8000
03E0000F0000
03E0001F0000
03C0001F0000
03C0001E0000
07C0003E0000
0780003E0000
0780003C0000
0F80003C0000
0F80007C0000
3FC000FE0000
FFE007FF0000
ENDCHAR
STARTCHAR 0049
ENCODING 73
SWIDTH 394 0
DWIDTH 15 0
BBX 20 30 -1 0
BITMAP
007FF0
003FE0
001F80
001F00
001F00
001E00
001E00
003E00
003E00
003C00
007C00
007C00
007800
00F800
00F800
00F000
01F000
01F000
01E000
03E000
03E000
03C000
03C000
07C000
07C000
078000
0F8000
0F8000
3FC000
FFE000
ENDCHAR
STARTCHAR 004A
ENCODING 74
SWIDTH 394 0
DWIDTH 15 0
BBX 22 35 0 -5
BITMAP
001FFC
000FF8
0007E0
0003C0
0007C0
000780
000780
000F80
000F00
000F00
001F00
001E00
001E00
003E00
003C00
003C00
007C00
007800
007800
00F800
00F000
00F000
01F000
01E000
01E000
03E000
03C000
07C000
078000
0F0000
1E0000
3C0000
780000
E00000
400000
ENDCHAR
STARTCHAR 004B
ENCODING 75
SWIDTH 763 0
DWIDTH 29 0
BBX 34 31 -1 -2
BITMAP
007FE0FFC0
003F803F00
001F001E00
001F003800
001F00F000
001E01E000
003E038000
003E070000
003C1E0000
007C380000
007C700000
0079E00000
007B800000
00FF000000
00FFC00000
00F3E00000
01F1F00000
01F0FC0000
01E07E0000
03E03E0000
03E03E0000
03C01F0000
07C01F0000
07C01F0000
07800F8000
0F800F8000
0F8007C000
1F8007C000
3FC003C000
FFE001E000
000000C000
ENDCHAR
STARTCHAR 004C
ENCODING 76
SWIDTH 605 0
DWIDTH 23 0
BBX 24 31 -1 -2
BITMAP
007FF0
003FC0
001F00
001F00
001F00
001E00
003E00
003E00
003C00
007C00
007C00
007800
007800
00F800
00F800
00F000
01F000
01F000
01E000
03E000
03E000
03C003
07C007
07C006
07800E
0F800E
0F801E
1F803E
3FC03E
FFFFFE
00000C
ENDCHAR
STARTCHAR 004D
ENCODING 77
SWIDTH 1000 0
DWIDTH 38 0
BBX 43 32 -1 -2
BITMAP
007FE0003FE0
003FE0007F80
001DE0007F00
001DE000FE00
001DE000FE00
001DE001FC00
0019E003BC00
0039E003FC00
0039E0077800
0031E00E7800
0071E00EF800
0071E01CF000
0061E018F000
00E1E039F000
00E1E071E000
00E1E061E000
01C1E0E3E000
01C1E1C3C000
01C1E183C000
0381E387C000
0381E307C000
0381E6078000
0381EE0F8000
0701EC0F8000
0701FC0F0000
0701F81F0000
0E01F01F0000
0E01F01F0000
3F01E07F8000
7F81C0FFC000
8041C1000000
000100000000
ENDCHAR
STARTCHAR 004E
ENCODING 78
SWIDTH 868 0
DWIDTH 33 0
BBX 38 32 -1 -2
BITMAP
007FE007FC
003FF003F8
001DF001E0
001DF001C0
001DF001C0
001CF801C0
0018F80380
0038F80380
0038F80380
0030780380
00707C0700
00707C0700
00607C0700
00E03C0600
00E03E0E00
00E03E0E00
01C03E0C00
01C01E0C00
01C01F1C00
03801F1C00
03801F1800
03800F3800
03800FB800
07000FB000
07000FB000
070007F000
0E0007F000
0E0007E000
3F0007E000
7F8003C000
8040030000
0000020000
ENDCHAR
STARTCHAR 004F
ENCODING 79
SWIDTH 842 0
DWIDTH 32 0
BBX 30 30 2 0
BITMAP
0003F800
000FFE00
003E07C0
00FC03E0
01F801E0
03E001F0
07C001F0
0F8001F8
1F0000F8
1F0000F8
3F0000FC
7E0000FC
7E0000FC
7E0000F8
7C0000F8
FC0001F8
FC0001F8
FC0001F8
FC0003F0
FC0003F0
FC0003E0
FC0007C0
7C0007C0
7C000F80
7C001F00
3E003E00
3E007C00
1E00F800
0783E000
00FF8000
ENDCHAR
STARTCHAR 0050
ENCODING 80
SWIDTH 710 0
DWIDTH 27 0
BBX 31 31 -1 0
BITMAP
007FF800
003FFFC0
001F83F8
000F00F8
001F00FC
001F00FC
001E007E
003E007E
003E007E
003C00FC
007C01F8
007C01F8
007803F0
00F807E0
00F80FC0
00F0FF80
00F7FE00
01F3F800
01F04000
01E00000
03E00000
03E00000
03C00000
07C00000
07C00000
07800000
0F800000
0F800000
1F800000
7FC00000
FFE00000
ENDCHAR
STARTCHAR 0051
ENCODING 81
SWIDTH 842 0
DWIDTH 32 0
BBX 30 37 2 -8
BITMAP
0003F800
000FFE00
003E07C0
00FC03E0
01F001E0
03E001F0
07C001F0
0F8001F8
1F0000F8
1F0000FC
3F0000FC
7E0000FC
7E0000FC
7E0000F8
7C0001F8
FC0001F8
FC0001F8
FC0003F8
FC0003F0
FC0003E0
FC0007E0
FC0007C0
7C000780
7C000F00
3C001E00
3E003C00
3E007800
0F01F000
03FFC000
007F0000
001E0000
000F8000
0007E000
0003F800
0001FFF0
0000FFF0
00003FC0
ENDCHAR
STARTCHAR 0052
ENCODING 82
SWIDTH 763 0
DWIDTH 29 0
BBX 31 32 -1 -2
BITMAP
007FF800
003FFFC0
001F83F8
000F00F8
001F00FC
001F00FC
001E007E
003E007E
003E007E
003C00FC
007C00FC
007C01F8
007803F0
00F80FE0
00FFFF80
00F7E000
00F1E000
01F0F000
01F07C00
01E07E00
03E03E00
03E03E00
03C01F00
07C01F00
07C01F00
07800F80
0F800F80
0F8007C0
1F8007C0
3FC003C0
FFE001E0
000000C0
ENDCHAR
STARTCHAR 0053
ENCODING 83
SWIDTH 605 0
DWIDTH 23 0
BBX 26 33 0 -1
BITMAP
00078100
001FFF80
003FFF80
007E0F80
007C0780
00F80380
00F80380
00F001C0
00F800C0
00FC0000
00FC0000
007E0000
007E0000
007F0000
003F0000
003F8000
001F8000
001FC000
000FC000
000FE000
0007E000
0007E000
0003E000
C001F000
E001F000
E001E000
7001E000
7001E000
7803E000
7C0FC000
7FFFC000
7FFF0000
60FC0000
ENDCHAR
STARTCHAR 0054
ENCODING 84
SWIDTH 684 0
DWIDTH 26 0
BBX 27 32 5 0
BITMAP
70000180
7FFFFFC0
7FFFFFC0
7F8F1FC0
701F03C0
701F01C0
601E00C0
603E00E0
603E0060
003C0000
007C0000
007C0000
00780000
00780000
00F80000
00F80000
00F00000
01F00000
01F00000
01E00000
01E00000
03E00000
03E00000
03C00000
07C00000
07C00000
07800000
0F800000
0F800000
1F800000
7FC00000
FFE00000
ENDCHAR
STARTCHAR 0055
ENCODING 85
SWIDTH 842 0
DWIDTH 32 0
BBX 33 30 3 0
BITMAP
0FFC03FF80
07F801FE00
03F000FC00
03E000F800
03C000F000
07C000F000
07C001F000
078001E000
0F8001E000
0F8001E000
0F0003C000
1F0003C000
1F0003C000
1E00038000
3E00078000
3E00078000
3C00070000
7C00070000
7C000F0000
78000E0000
F8000E0000
F8000E0000
F8001C0000
F800380000
F800380000
F800700000
7C00E00000
3C01C00000
1F0F800000
03FE000000
ENDCHAR
STARTCHAR 0056
ENCODING 86
SWIDTH 684 0
DWIDTH 26 0
BBX 30 32 0 -2
BITMAP
FFC00FFC
7F8007F0
3F0003E0
1F0003C0
1F000380
1F000700
1F000E00
1F000E00
1F001C00
1F003800
1F007000
1F007000
1F00E000
1F01C000
1F01C000
1F038000
1F070000
1F0E0000
1F0E0000
1F1C0000
1F380000
1F380000
1F700000
1FE00000
1FC00000
1FC00000
1F800000
1F000000
1E000000
1E000000
1C000000
10000000
ENDCHAR
STARTCHAR 0057
ENCODING 87
SWIDTH 947 0
DWIDTH 36 0
BBX 41 32 0 -1
BITMAP
FFE00003FF80
7FC00001FE00
3F800600FC00
1F003E007000
1F003E007000
1F007E00E000
1F007E00E000
1F00FE01C000
1F01FE038000
1F01BE038000
1F03BE070000
1F033E070000
1F073E0E0000
1F063E0C0000
1F0E3E1C0000
1F0C3E380000
1F1C3E380000
1F183E700000
1F383E600000
1F303EE00000
1F703FC00000
1FE03F800000
1FE03F800000
1FC03F000000
1F803F000000
1F803E000000
1F003C000000
1F003C000000
1E0038000000
1E0038000000
1C0030000000
180020000000
ENDCHAR
STARTCHAR 0058
ENCODING 88
SWIDTH 842 0
DWIDTH 32 0
BBX 35 30 -1 0
BITMAP
00FFE03FE0
007FC01FC0
003F800F80
003F000F00
001F001E00
001F003C00
001F007800
000F00F000
000F01E000
000703C000
0007070000
00070E0000
00031C0000
0003380000
0003F00000
0003E00000
0007F00000
000F300000
001E380000
003C380000
00783C0000
00F03C0000
01E01E0000
03C01E0000
07C01F0000
0F801F0000
1F001F8000
3E001F8000
7F003FC000
FFC07FF000
ENDCHAR
STARTCHAR 0059
ENCODING 89
SWIDTH 763 0
DWIDTH 29 0
BBX 28 30 5 0
BITMAP
3FE03FF0
1FC01FC0
0F800F80
0F800E00
0F800E00
07801C00
07803800
07C07000
07C0E000
03C1C000
03C38000
03C30000
03C60000
03CE0000
01FC0000
01F80000
01F00000
01E00000
01E00000
03E00000
03E00000
03C00000
07C00000
07C00000
07C00000
07800000
0F800000
0F800000
3FC00000
FFE00000
ENDCHAR
STARTCHAR 005A
ENCODING 90
SWIDTH 710 0
DWIDTH 27 0
BBX 32 33 -2 -1
BITMAP
001C0000
001FFFFF
001FFFFE
003E00FC
003C01F8
003C03F8
003803F0
003007E0
00200FC0
00001F80
00003F00
00007E00
0000FC00
0001F800
0003F000
0003E000
0007C000
000F8000
001F0000
003E0000
007C0000
00F80000
01F00000
03F00180
03E00380
07C00300
0F800700
1F000F00
3E000F00
7FF81F00
FFFFFF00
FFFFFF00
00000200
ENDCHAR
STARTCHAR 005B
ENCODING 91
SWIDTH 368 0
DWIDTH 14 0
BBX 21 36 -3 -6
BITMAP
000FF8
000FF8
001F00
001800
001800
003800
003000
003000
007000
006000
006000
00E000
00C000
00C000
01C000
018000
018000
038000
030000
030000
070000
060000
060000
0E0000
0C0000
0C0000
1C0000
180000
180000
380000
380000
380000
780000
780000
7F0000
FF8000
ENDCHAR
STARTCHAR 005C
ENCODING 92
SWIDTH 157 0
DWIDTH 6 0
BBX 3 32 2 -3
BITMAP
E0
E0
E0
E0
E0
E0
E0
E0
E0
E0
E0
E0
E0
E0
E0
E0
E0
E0
E0
E0
E0
E0
E0
E0
E0
E0
E0
E0
E0
E0
E0
E0
ENDCHAR
STARTCHAR 005D
ENCODING 93
SWIDTH 368 0
DWIDTH 14 0
BBX 22 36 -5 -6
BITMAP
0007FC
0007F8
0001F8
000078
000070
000070
000070
000060
0000E0
0000E0
0000C0
0001C0
0001C0
000180
000380
000380
000300
000700
000700
000600
000E00
000E00
000C00
001C00
001C00
001800
003800
003800
003000
007000
007000
006000
00E000
00E000
1FC000
FFC000
ENDCHAR
STARTCHAR 005E
ENCODING 94
SWIDTH 842 0
DWIDTH 32 0
BBX 11 6 7 20
BITMAP
01E0
03E0
0FE0
1E60
7860
C060
ENDCHAR
STARTCHAR 005F
ENCODING 95
SWIDTH 789 0
DWIDTH 30 0
BBX 24 2 3 -5
BITMAP
FFFFFF
FFFFFF
ENDCHAR
STARTCHAR 0060
ENCODING 96
SWIDTH 842 0
DWIDTH 32 0
BBX 6 8 6 24
BITMAP
60
F0
F0
78
38
18
0C
04
ENDCHAR
STARTCHAR 0061
ENCODING 97
SWIDTH 710 0
DWIDTH 27 0
BBX 25 21 2 0
BITMAP
00300800
00FF0C00
01FF9C00
03E1B800
0FC1F800
1F80F000
3F00F000
3E00F000
3E01E000
7C01E000
7C03C000
F807C180
F80F8380
F00F8700
F01F0E00
F83F1C00
F87E3800
78EE7000
7FCFE000
7F8FC000
1F060000
ENDCHAR
STARTCHAR 0062
ENCODING 98
SWIDTH 631 0
DWIDTH 24 0
BBX 24 33 -1 -2
BITMAP
007FE0
007FE0
0007C0
0007C0
000F80
000F80
001F00
001F00
001E00
003E00
003C00
007C30
0079FC
00FBFE
00F7BE
00FE3E
01FC1E
01F81F
03F01F
03E01E
07C03E
07803E
0F007C
0E007C
1E00F8
1C01F8
3C07F0
3C0FE0
7E1FC0
77FF00
E3FE00
C1FC00
C00000
ENDCHAR
STARTCHAR 0063
ENCODING 99
SWIDTH 552 0
DWIDTH 21 0
BBX 19 21 2 0
BITMAP
001C00
007FC0
01FFC0
03E1E0
0FC1E0
0F81E0
1F01E0
1E01E0
3E0000
3C0000
7C0000
780000
F80200
F00700
F00E00
F81C00
F83800
787000
7FE000
7FC000
1F0000
ENDCHAR
STARTCHAR 0064
ENCODING 100
SWIDTH 710 0
DWIDTH 27 0
BBX 28 32 2 0
BITMAP
00003FF0
00003FF0
000003E0
000003E0
000007C0
000007C0
00000780
00000F80
00000F80
00000F00
00001F00
00301E00
00FF1E00
01FFBC00
03E1BC00
0FC1F800
1F80F800
3F00F000
3E00F000
3E01E000
7C01E000
7C03C000
F807C180
F80F8380
F00F8700
F01F0E00
F83F1C00
F87E3800
78EE7000
7FCFE000
7F8FC000
1F070000
ENDCHAR
STARTCHAR 0065
ENCODING 101
SWIDTH 552 0
DWIDTH 21 0
BBX 19 21 2 0
BITMAP
001C00
007FC0
01FFC0
03E1E0
0FC1E0
0F81E0
1F01E0
1E01E0
3E07C0
3DFF00
7DFE00
780000
F80200
F00700
F00E00
F81C00
F83800
787000
7FE000
7FC000
1F0000
ENDCHAR
STARTCHAR 0066
ENCODING 102
SWIDTH 447 0
DWIDTH 17 0
BBX 35 44 -9 -12
BITMAP
0000000200
0000001FC0
0000007FE0
000000FBE0
000001F3E0
000003E3E0
000003E3E0
000007C180
0000078000
00000F8000
00000F0000
00001E0000
0003FFF800
0003FFF800
00003C0000
00007C0000
00007C0000
0000780000
0000F80000
0000F00000
0001F00000
0001E00000
0003E00000
0003C00000
0007C00000
0007C00000
000F800000
000F800000
000F000000
001F000000
001E000000
003E000000
003C000000
007C000000
007C000000
00F8000000
00F8000000
70F0000000
F1F0000000
F1E0000000
F3C0000000
FF00000000
FE00000000
1800000000
ENDCHAR
STARTCHAR 0067
ENCODING 103
SWIDTH 605 0
DWIDTH 23 0
BBX 29 33 -5 -12
BITMAP
0000E000
0001FFF8
0007FFF8
001F8F80
003F0780
007E07C0
007807C0
00F803C0
00F803C0
00F80780
00780F80
007C1F80
003C3E00
001FFC00
001FF000
007FC000
00F80000
00F80000
007C0000
007E0000
01FF0000
0FCF8000
3E07C000
7C03F000
7C01F000
F800F000
7C00F000
7C00F000
7E00E000
3F03E000
1FC7C000
07FF8000
01F80000
ENDCHAR
STARTCHAR 0068
ENCODING 104
SWIDTH 631 0
DWIDTH 24 0
BBX 27 32 -3 0
BITMAP
007FF000
007FE000
0007E000
0007C000
0007C000
000F8000
000F8000
001F0000
001F0000
001E0000
003E0000
003C3800
007DFF00
007BFF00
007F9F00
00FE0F00
00FC1F00
01F81F00
01F03E00
03E07E00
03C07C00
07C0F800
0F80F860
0F81F0E0
1F01F1C0
1F03E380
3E07C700
3E07CE00
7C0F9C00
FC0FF800
F80FF000
7807C000
ENDCHAR
STARTCHAR 0069
ENCODING 105
SWIDTH 447 0
DWIDTH 17 0
BBX 20 30 0 0
BITMAP
0001C0
0003F0
0003F0
0003F0
0003E0
0000E0
000000
000000
000000
001800
00FE00
01FE00
03BE00
073C00
0E7C00
1C7800
38F800
71F000
E1E000
43E000
03C300
07C700
0F8F00
0F1E00
1F3C00
1E7800
3EF000
3FE000
3FC000
3F0000
ENDCHAR
STARTCHAR 006A
ENCODING 106
SWIDTH 394 0
DWIDTH 15 0
BBX 28 42 -8 -12
BITMAP
000001C0
000003F0
000003F0
000003F0
000003E0
000000E0
00000000
00000000
00000000
00000C00
0000FE00
0001FE00
0003BE00
00073E00
000E3C00
001C7C00
00387800
00F0F800
00E0F000
0041F000
0001E000
0003E000
0003E000
0003C000
0007C000
00078000
000F8000
000F0000
001F0000
001E0000
001E0000
003E0000
003C0000
007C0000
00780000
70F80000
F8F00000
F9E00000
F9C00000
FF800000
FF000000
1C000000
ENDCHAR
STARTCHAR 006B
ENCODING 107
SWIDTH 605 0
DWIDTH 23 0
BBX 25 32 -2 0
BITMAP
003FF000
003FF000
0003E000
0003C000
0007C000
00078000
000F8000
000F0000
000F0000
001E0000
001C0000
003C1800
0038FE00
0079FF00
00739F80
00671F80
00E60F80
00CE0F00
01FC1E00
01F81C00
03D83800
03FFF000
07BF8300
0FB80700
0F380E00
1F381C00
1F383800
3E3FF000
3E3FE000
7C3FC000
FC3F0000
781E0000
ENDCHAR
STARTCHAR 006C
ENCODING 108
SWIDTH 394 0
DWIDTH 15 0
BBX 18 32 0 0
BITMAP
00FFC0
00FFC0
000F80
001F80
001F00
003F00
003E00
003E00
007C00
007C00
00F800
00F800
01F000
01F000
03E000
03E000
03C000
07C000
07C000
0F8000
0F8000
1F0000
1F0600
3E0E00
3E1C00
3C3800
7C7000
78E000
F9C000
FF8000
FF0000
380000
ENDCHAR
STARTCHAR 006D
ENCODING 109
SWIDTH 1052 0
DWIDTH 40 0
BBX 39 21 0 0
BITMAP
00180C0380
00FC7F1FF0
01FCFF3FF0
03B9EF79F0
073B87E0F0
0E7707C1F0
1C7E0F81F0
78FC0F03F0
F0F81F03E0
61F01E07C0
03E03E07C0
03E03E0F86
07C07C1F0E
07C07C1F1C
0F80F83E38
0F80F83C70
1F01F07CE0
1F01F079C0
3E03E0FF80
3E03E0FF00
1C01C07C00
ENDCHAR
STARTCHAR 006E
ENCODING 110
SWIDTH 763 0
DWIDTH 29 0
BBX 28 21 0 0
BITMAP
00180E00
00FC7FC0
01FCFFC0
03B9EFC0
073B87C0
0E7707C0
1C7E0FC0
78FC0F80
F0F81F00
61F03F00
03E03E00
03E07C30
07C07C70
07C0F8E0
0F80F1C0
0F81F380
1F03E700
1F03EE00
3E03FC00
3E03F800
1C01E000
ENDCHAR
STARTCHAR 006F
ENCODING 111
SWIDTH 631 0
DWIDTH 24 0
BBX 21 21 2 0
BITMAP
001C00
007FC0
01FFC0
03E1E0
0FC1E0
0F80F0
1F00F0
1E00F8
3E00F0
3C01F0
7C01E0
7803E0
F803C0
F007C0
F00F80
781F80
783F00
387E00
3FF800
1FE000
0FC000
ENDCHAR
STARTCHAR 0070
ENCODING 112
SWIDTH 710 0
DWIDTH 27 0
BBX 32 32 -6 -11
BITMAP
00006030
0003F1FC
0007F3FE
000EF7BE
001CFE3E
0039FC1E
0071F81F
01E3F01F
03C3E01E
0187C03E
0007803E
000F007C
000F007C
001E00F8
001E01F8
003E03F0
003F07E0
007B0FC0
007BFF00
00F1FE00
00F1FC00
01E00000
01E00000
03C00000
03C00000
07C00000
07800000
0F800000
0F000000
1F000000
FFFC0000
FFFC0000
ENDCHAR
STARTCHAR 0071
ENCODING 113
SWIDTH 631 0
DWIDTH 24 0
BBX 24 33 2 -12
BITMAP
003002
00FF07
01FF86
03FBCE
0FE0FC
1FC07C
3F0038
3E0038
3E0070
7C00F0
7C01E0
F801E0
F803C0
F007C0
F00F80
F83F80
F87F00
78FF00
7FFE00
7F9E00
1F1E00
003C00
003C00
007800
007800
00F800
00F000
01F000
01E000
03E000
03E000
7FFE00
7FFE00
ENDCHAR
STARTCHAR 0072
ENCODING 114
SWIDTH 526 0
DWIDTH 20 0
BBX 23 21 0 0
BITMAP
001818
00FC7E
01FCFC
03B9FC
073BFC
0E73F8
1C6700
38FC00
F0F800
E1F000
43E000
03E000
07C000
07C000
0F8000
0F8000
1F0000
1F0000
3E0000
3E0000
1C0000
ENDCHAR
STARTCHAR 0073
ENCODING 115
SWIDTH 473 0
DWIDTH 18 0
BBX 20 21 -2 0
BITMAP
000380
003FF0
007CF0
0078F0
00F8F0
00F8F0
00F8E0
00F800
00F800
007800
007C00
007C00
007C00
103C00
783C00
F83C00
F83C00
F87800
F8F000
FFE000
3F0000
ENDCHAR
STARTCHAR 0074
ENCODING 116
SWIDTH 447 0
DWIDTH 17 0
BBX 17 26 0 0
BITMAP
000E00
000E00
001C00
001C00
001800
003800
07FF80
07FF80
01F000
01E000
03E000
03C000
07C000
078000
0F8000
0F0000
1F0600
1E0E00
3E1C00
3C3800
7C7000
78E000
F9C000
FF8000
FF0000
7C0000
ENDCHAR
STARTCHAR 0075
ENCODING 117
SWIDTH 763 0
DWIDTH 29 0
BBX 28 21 0 0
BITMAP
00180000
00FE01C0
01FE03E0
03BE03E0
073C07C0
0E7C0FC0
1CF80F80
38F01F80
F1F01F00
63E03E00
03C03E00
07C07C30
0780FC70
0F81F8E0
1F03F1C0
1F07F380
0F0FE700
0F9DEE00
0FF9FC00
07F1F800
01E0E000
ENDCHAR
STARTCHAR 0076
ENCODING 118
SWIDTH 605 0
DWIDTH 23 0
BBX 23 21 0 0
BITMAP
001800
00FE38
01FE3C
03BE7E
073E7E
0E7C3E
1CFC0E
78F81C
F1F01C
61F018
03E038
07C070
07C0E0
0F81C0
0F0380
1F0700
3E0E00
3C7C00
3FF000
3FC000
1E0000
ENDCHAR
STARTCHAR 0077
ENCODING 119
SWIDTH 868 0
DWIDTH 33 0
BBX 33 21 0 0
BITMAP
0070000000
03FC0E0700
07FC1F0F80
0E781F0F80
0CF81F1F80
1CF83E0F80
38F03E0380
71F03C0380
E1E07C0300
43E07C0700
03E0780600
03C0F80E00
07C1F01C00
0783F03800
0F87F07000
0F8FE0E000
0F1DE1C000
1F3BC78000
1FF3FE0000
1FE3F80000
0F81E00000
ENDCHAR
STARTCHAR 0078
ENCODING 120
SWIDTH 605 0
DWIDTH 23 0
BBX 26 23 -2 -2
BITMAP
00080100
003C0380
007C07C0
00FC0FC0
01FC1F00
03FC1E00
0F3C3800
1E1C7000
3C1CE000
180C8000
00040000
001C0000
00360000
00660000
01C70600
03C78E00
0F87FC00
1F07F800
3E07F000
FC07E000
7803C000
30000000
10000000
ENDCHAR
STARTCHAR 0079
ENCODING 121
SWIDTH 684 0
DWIDTH 26 0
BBX 27 33 0 -12
BITMAP
00180000
00FE01C0
01FE03E0
03BE03E0
073C07C0
0E7C0FC0
1C780F80
38F81F00
F0F01F00
61F03E00
01E07C00
03E0FC00
03C1F800
07C3F800
0787F000
0F8EE000
0F1DE000
1F3BC000
1FF38000
1FE78000
0F870000
000E0000
001E0000
001C0000
00380000
00380000
70700000
F8E00000
F8C00000
F9800000
FF000000
FE000000
38000000
ENDCHAR
STARTCHAR 007A
ENCODING 122
SWIDTH 526 0
DWIDTH 20 0
BBX 24 21 -3 0
BITMAP
001E02
03FF87
03FFEE
03FFFC
03FFF8
0303F0
0300E0
0301C0
030380
000F00
001C00
003800
007000
00E000
03C180
0783C0
0F03C0
1FE3C0
77FFC0
E3FFC0
41FF80
ENDCHAR
STARTCHAR 007B
ENCODING 123
SWIDTH 473 0
DWIDTH 18 0
BBX 21 35 0 -5
BITMAP
000030
0003F8
000F80
001E00
003C00
00F800
01F000
01E000
03C000
03C000
07C000
078000
0F8000
1F0000
7C0000
F80000
7C0000
3E0000
1F0000
1F0000
1F0000
1F0000
1F0000
1F0000
1F0000
1F0000
0F0000
0F0000
0F0000
078000
038000
03C000
01C000
00E000
004000
ENDCHAR
STARTCHAR 007C
ENCODING 124
SWIDTH 157 0
DWIDTH 6 0
BBX 12 32 -3 -3
BITMAP
0030
0030
0020
0060
0060
0040
00C0
00C0
0080
0180
0180
0100
0300
0300
0200
0600
0600
0400
0C00
0C00
0800
1800
1800
1000
3000
3000
2000
6000
6000
4000
C000
C000
ENDCHAR
STARTCHAR 007D
ENCODING 125
SWIDTH 473 0
DWIDTH 18 0
BBX 21 35 -3 -5
BITMAP
001000
001800
001C00
000E00
000E00
000700
000780
000380
000380
0003C0
0003C0
0003C0
0003C0
0003C0
0003C0
0003C0
0003C0
0003E0
0001F0
0000F8
0001F0
0007C0
000F80
000F00
000F00
001E00
001E00
003C00
007C00
00F800
01E000
03C000
0F8000
FE0000
600000
ENDCHAR
STARTCHAR 007E
ENCODING 126
SWIDTH 605 0
DWIDTH 23 0
BBX 17 5 3 10
BITMAP
0F0300
3F8780
79DE00
E0FC00
407000
ENDCHAR
STARTCHAR 00A1
ENCODING 161
SWIDTH 236 0
DWIDTH 9 0
BBX 15 30 -7 -12
BITMAP
0038
007E
007E
007C
007C
0018
0000
0000
0000
0020
0060
0060
00C0
00C0
01C0
01C0
0380
0780
0780
0F00
0F00
1F00
1E00
3E00
3E00
7C00
7C00
FC00
FC00
F800
ENDCHAR
STARTCHAR 00A2
ENCODING 162
SWIDTH 552 0
DWIDTH 21 0
BBX 19 32 2 0
BITMAP
000100
000300
000200
000200
000600
003E00
00FFC0
01FFC0
07E9E0
0FC9E0
1F99E0
1F11E0
3E1000
3C3000
7C2000
782000
F86000
F84200
F04700
F0CE00
F89C00
F8B800
79F000
7FE000
7FC000
1F0000
020000
020000
060000
040000
040000
0C0000
ENDCHAR
STARTCHAR 00A3
ENCODING 163
SWIDTH 710 0
DWIDTH 27 0
BBX 30 33 -3 -2
BITMAP
00001E00
00007F80
0003F1E0
000FE0F8
001F80F8
001F00FC
003F00FC
007E00F8
007E00F8
003E00F0
003F0000
001F0000
001F0000
000F0000
000F8000
000F8000
03FFFE00
03FF8000
000F8000
000F0000
001F0000
001E0000
003C00C0
00780180
00F80380
03E00380
07C00780
1F000F00
3E001F00
F8001F00
FFFFFE00
00000E00
00000200
ENDCHAR
STARTCHAR 00A5
ENCODING 165
SWIDTH 763 0
DWIDTH 29 0
BBX 28 30 5 0
BITMAP
3FE03FF0
1FC01FC0
0F800F80
0F800E00
0F800E00
07801C00
07803800
07C07000
07C0E000
03C1C000
03C18000
03C30000
03C60000
01CE0000
01FC0000
7FFFC000
7FFFC000
00000000
00000000
FFFFC000
FFFFC000
07C00000
07C00000
07C00000
07800000
0F800000
0F800000
1F800000
3FC00000
FFE00000
ENDCHAR
STARTCHAR 00A6
ENCODING 166
SWIDTH 131 0
DWIDTH 5 0
BBX 12 32 -3 -3
BITMAP
0010
0030
0020
0020
0060
0040
0040
00C0
0080
0080
0180
0100
0100
0300
0000
0000
0000
0000
0000
0C00
0800
0800
1800
1000
1000
3000
2000
2000
6000
4000
4000
C000
ENDCHAR
STARTCHAR 00A7
ENCODING 167
SWIDTH 552 0
DWIDTH 21 0
BBX 27 42 -3 -11
BITMAP
00007E40
0001FFC0
0003F1C0
0007C1E0
000F80E0
000F8060
000F8060
000F8000
000F8000
0007C000
0007C000
0003C000
0001E000
0003E000
007FE000
00F8F000
00F0F000
01E07800
03E07800
03E07800
03E07800
03E07800
03E07800
01E07000
01E0F000
01E1E000
00F3C000
00FE0000
00700000
00780000
007C0000
003C0000
003E0000
003E0000
C01E0000
C01E0000
E01E0000
703E0000
70FC0000
7FF80000
7FF00000
47000000
ENDCHAR
STARTCHAR 00A8
ENCODING 168
SWIDTH 842 0
DWIDTH 32 0
BBX 10 5 7 25
BITMAP
71C0
F3C0
F3C0
F3C0
6180
ENDCHAR
STARTCHAR 00A9
ENCODING 169
SWIDTH 842 0
DWIDTH 32 0
BBX 26 26 3 6
BITMAP
FFFFFFC0
FFFFFFC0
C00000C0
C03F80C0
C07FF8C0
C1F8FCC0
C3E03CC0
C7C01EC0
C7801EC0
CF801CC0
DF000CC0
DF0000C0
DF0000C0
DF0000C0
DF0000C0
DF0000C0
CF8000C0
CF8008C0
C7801EC0
C3E01CC0
C1F078C0
C0FFF0C0
C03F80C0
C00000C0
FFFFFFC0
FFFFFFC0
ENDCHAR
STARTCHAR 00AB
ENCODING 171
SWIDTH 526 0
DWIDTH 20 0
BBX 18 21 2 2
BITMAP
004000
006000
00E180
01E380
03C7C0
079F00
0F3E00
1C7800
38F000
71C000
E18000
E18000
71C000
70E000
38F000
387000
1C3800
1E3800
0E1000
040000
040000
ENDCHAR
STARTCHAR 00AE
ENCODING 174
SWIDTH 842 0
DWIDTH 32 0
BBX 26 26 3 6
BITMAP
FFFFFFC0
FFFFFFC0
C00000C0
CFFF00C0
C7F1F0C0
C3E078C0
C3E078C0
C3E03CC0
C3E03EC0
C3E03EC0
C3E07CC0
C3E078C0
C3E1F8C0
C3FFF0C0
C3FF80C0
C3FF80C0
C3E7FCC0
C3E1FEC0
C3E0FEC0
C3E07EC0
C3E03EC0
C7F01EC0
CFF804C0
C00000C0
FFFFFFC0
FFFFFFC0
ENDCHAR
STARTCHAR 00B0
ENCODING 176
SWIDTH 473 0
DWIDTH 18 0
BBX 12 13 3 21
BITMAP
0700
0F80
1DC0
38E0
7070
E070
E070
E070
7070
38E0
1DC0
0F80
0700
ENDCHAR
STARTCHAR 00B1
ENCODING 177
SWIDTH 605 0
DWIDTH 23 0
BBX 21 27 0 0
BITMAP
007000
007000
007000
007000
007000
007000
007000
007000
007000
FFFFF8
FFFFF8
FFFFF8
007000
007000
007000
007000
007000
007000
007000
007000
007000
000000
000000
000000
3FFFF0
3FFFF0
3FFFF0
ENDCHAR
STARTCHAR 00B4
ENCODING 180
SWIDTH 842 0
DWIDTH 32 0
BBX 8 6 10 24
BITMAP
06
0F
1F
3E
78
C0
ENDCHAR
STARTCHAR 00B6
ENCODING 182
SWIDTH 526 0
DWIDTH 20 0
BBX 18 43 3 -12
BITMAP
001FC0
00FFC0
07FC40
0FF880
3FF880
7FF880
7FF180
7FF100
7FF100
FFE300
FFE200
FFE200
7FE200
7FC600
7FC400
7FC400
1F8C00
008800
018800
018800
011800
031000
031000
023000
062000
062000
046000
046000
0C4000
0C4000
08C000
188000
188000
118000
118000
310000
230000
230000
620000
620000
460000
C60000
C40000
ENDCHAR
STARTCHAR 00B7
ENCODING 183
SWIDTH 210 0
DWIDTH 8 0
BBX 6 6 0 8
BITMAP
70
7C
FC
FC
F8
38
ENDCHAR
STARTCHAR 00B8
ENCODING 184
SWIDTH 842 0
DWIDTH 32 0
BBX 11 14 6 -9
BITMAP
0060
00E0
01C0
0380
0300
0600
0C00
0E00
0600
0200
C600
C600
FE00
7C00
ENDCHAR
STARTCHAR 00BB
ENCODING 187
SWIDTH 526 0
DWIDTH 20 0
BBX 18 21 0 2
BITMAP
001000
001800
021C00
061C00
070E00
070E00
038700
01C700
01C380
00E3C0
0061C0
00E380
03C700
078E00
1F1C00
3E7800
F8F000
F1E000
63C000
418000
010000
ENDCHAR
STARTCHAR 00BC
ENCODING 188
SWIDTH 763 0
DWIDTH 29 0
BBX 28 34 2 -2
BITMAP
00000070
000000E0
002001E0
00E001C0
07E00380
0FC00700
01C00E00
01800E00
03801C00
03803800
07007000
07007000
0700E000
0E01C000
1F038000
3F878000
FFC70000
000E1DE0
001C1DC0
00383BC0
00383B80
00703F80
00E0E700
01C1CF00
03C30E00
038FDE00
070FFC00
0E001C00
1C003800
1C007800
3801FC00
7003FE00
E0000000
E0000000
ENDCHAR
STARTCHAR 00BD
ENCODING 189
SWIDTH 763 0
DWIDTH 29 0
BBX 29 34 0 -2
BITMAP
00000038
00000070
001000E0
00E001C0
07E003C0
07E00380
01C00700
01C00E00
01C01C00
03801C00
03803800
07007000
0700E000
0700E000
0F01C000
3F838000
7FC70000
000F1F80
000E7FC0
001CF3E0
0038E1E0
0071C1E0
0071C1E0
00E1C3E0
01C0C7C0
0380CF80
07801E00
07007800
0E00E1C0
1C038780
380E0F80
380FFF80
70000000
E0000000
ENDCHAR
STARTCHAR 00BE
ENCODING 190
SWIDTH 763 0
DWIDTH 29 0
BBX 28 34 2 -2
BITMAP
01C00070
0FF800E0
0E3C01C0
1C3C01C0
1C3E0380
0C3C0700
00700E00
00400E00
03F01C00
00783800
00387000
7038F000
F078E000
F071C000
79E38000
3F870000
0C070000
000E1DC0
001C1DC0
00383BC0
00383B80
00703F80
00E0E700
01C1CF00
03C30E00
038FDE00
070FFC00
0E001C00
1C003800
1C007800
3801FC00
7003FE00
E0000000
E0000000
ENDCHAR
STARTCHAR 00BF
ENCODING 191
SWIDTH 526 0
DWIDTH 20 0
BBX 20 30 -6 -12
BITMAP
0001C0
0003F0
0003F0
0003E0
0003E0
0000C0
000000
000000
000000
000100
000300
000300
000E00
007E00
01F000
07C000
1F0000
3E0000
3C0000
780000
F80300
F00380
F003C0
F003C0
F807C0
780780
7C0F80
3E0F00
1FBE00
07F800
ENDCHAR
STARTCHAR 00C0
ENCODING 192
SWIDTH 789 0
DWIDTH 30 0
BBX 29 41 -1 0
BITMAP
00000380
00000380
000003C0
000003C0
000001C0
000000E0
00000060
00000000
00000000
00000020
00000060
000001E0
000003E0
000003E0
000003E0
000007E0
00000FE0
00001FE0
00001BE0
000033E0
000063E0
0000E3E0
0000C3E0
000183E0
000383E0
000703E0
000603E0
000E03E0
001C03E0
003C03E0
003FFFE0
007FFFE0
00E007E0
01C003E0
01C003E0
038003E0
070003E0
0E0003E0
1F0003E0
3F8007F0
FFC00FF8
ENDCHAR
STARTCHAR 00C1
ENCODING 193
SWIDTH 789 0
DWIDTH 30 0
BBX 31 40 -1 0
BITMAP
00000008
0000001C
0000003E
0000007E
000000F0
000001C0
00000200
00000000
00000020
00000060
000001E0
000003E0
000003E0
000003E0
000007E0
00000FE0
00001FE0
00001BE0
000033E0
000073E0
0000E3E0
0000C3E0
000183E0
000383E0
000703E0
000603E0
000E03E0
001C03E0
003C03E0
003FFFE0
007FFFE0
00E007E0
01C003E0
01C003E0
038003E0
070003E0
0E0003E0
1F0003E0
3F8007F0
FFC00FF8
ENDCHAR
STARTCHAR 00C2
ENCODING 194
SWIDTH 789 0
DWIDTH 30 0
BBX 31 40 -1 0
BITMAP
0000001E
0000003E
000000FE
000001F6
00000786
00000E06
00001000
00000000
00000020
00000060
000001E0
000003E0
000003E0
000003E0
000007E0
00000FE0
00001FE0
00001BE0
000033E0
000063E0
0000E3E0
0000C3E0
000183E0
000383E0
000703E0
000603E0
000E03E0
001C03E0
003C03E0
003FFFE0
007FFFE0
00E007E0
01C003E0
01C003E0
038003E0
070003E0
0E0003E0
1F0003E0
3F8007F0
FFC00FF8
ENDCHAR
STARTCHAR 00C3
ENCODING 195
SWIDTH 789 0
DWIDTH 30 0
BBX 32 40 -1 0
BITMAP
00000780
00000FC3
00001EE7
00003C7E
0000183C
00000000
00000000
00000000
00000020
00000060
000001E0
000003E0
000003E0
000003E0
000007E0
00000FE0
00001FE0
00001BE0
000033E0
000073E0
0000E3E0
0000C3E0
000183E0
000383E0
000703E0
000603E0
000E03E0
001C03E0
003C03E0
003FFFE0
007FFFE0
00E007E0
01C003E0
01C003E0
038003E0
070003E0
0E0003E0
1F0003E0
3F8007F0
FFC00FF8
ENDCHAR
STARTCHAR 00C4
ENCODING 196
SWIDTH 789 0
DWIDTH 30 0
BBX 30 40 -1 0
BITMAP
0000071C
00000F3C
00001F7C
00001F7C
00000E38
00000000
00000000
00000000
00000020
00000060
000001E0
000003E0
000003E0
000003E0
000007E0
00000FE0
00001FE0
00001BE0
000033E0
000073E0
0000E3E0
0000C3E0
000183E0
000383E0
000703E0
000603E0
000E03E0
001C03E0
003C03E0
003FFFE0
007FFFE0
00E007E0
01C003E0
01C003E0
038003E0
070003E0
0E0003E0
1F0003E0
3F8007F0
FFC00FF8
ENDCHAR
STARTCHAR 00C5
ENCODING 197
SWIDTH 789 0
DWIDTH 30 0
BBX 29 41 -1 0
BITMAP
000001C0
000003E0
00000630
00000410
00000410
00000220
000001C0
00000080
00000000
00000020
00000060
000001E0
000003E0
000003E0
000003E0
000007E0
00000FE0
00001FE0
00001BE0
000033E0
000073E0
0000E3E0
0000C3E0
000183E0
000383E0
000703E0
000603E0
000E03E0
001C03E0
003C03E0
003FFFE0
007FFFE0
00E007E0
01C003E0
01C003E0
038003E0
070003E0
0E0003E0
1F0003E0
3F8007F0
FFC00FF8
ENDCHAR
STARTCHAR 00C6
ENCODING 198
SWIDTH 1078 0
DWIDTH 41 0
BBX 45 33 -1 -2
BITMAP
000000000010
0000000001F0
00000FFFFFF0
000007FFFFF0
000003E000F0
000003E000F0
000007E00078
00000FE00038
00000FE00018
00001BE00008
000033E00000
000073E00000
000063E00000
0000C3E01000
0001C3E03000
000383FFF000
000303FFF000
000603E07000
000E03E03000
001C03E01000
003C03E00000
003FFFE00000
007FFFE00000
00E007E00600
01C003E00600
01C003E00E00
038003E01C00
070003E01C00
0E0003E03C00
1F0003E07C00
3F8007FFFC00
FFC00FFFFC00
000000001C00
ENDCHAR
STARTCHAR 00C7
ENCODING 199
SWIDTH 710 0
DWIDTH 27 0
BBX 28 39 2 -9
BITMAP
0003F800
000FFE00
003E0FC0
00FC07E0
01F003F0
03E003F0
07C003F0
0F8003E0
1F0003C0
1F000000
3F000000
7E000000
7E000000
7E000000
7C000000
FC000000
FC000000
FC000000
FC000000
FC000000
FC000000
FC000200
7C000700
7C000E00
3C001C00
3E003800
3E00F000
0F01E000
03FFC000
00FF8000
00030000
00060000
00070000
00030000
00010000
00630000
00630000
007E0000
003E0000
ENDCHAR
STARTCHAR 00C8
ENCODING 200
SWIDTH 710 0
DWIDTH 27 0
BBX 31 43 -1 -2
BITMAP
00001800
00003800
00003C00
00003C00
00001C00
00000E00
00000600
00000300
00000000
00000000
0000003C
007FFFFC
003FFFFC
001F803E
000F001E
001F001E
001E000E
001E0006
003E0002
003C0000
003C0000
007C0000
00780400
00780400
00F80C00
00FFFC00
00FFFC00
00F80C00
01F00400
01E00000
01E00000
03E00000
03C00000
03C00180
07C00180
07C00380
07800380
0F800780
0F800F80
1F800F00
3FC01F00
FFFFFF00
00000300
ENDCHAR
STARTCHAR 00C9
ENCODING 201
SWIDTH 710 0
DWIDTH 27 0
BBX 31 41 -1 -2
BITMAP
000001C0
000003E0
000007E0
00000FC0
00001E00
00003800
00000000
00000000
0000003C
007FFFFC
003FFFFC
001F803E
000F001E
001F001E
001E000E
001E0006
003E0002
003C0000
003C0000
007C0000
00780400
00780400
00F80C00
00FFFC00
00FFFC00
00F80C00
01F00400
01E00000
01E00000
03E00000
03C00000
03C00180
07C00180
07C00380
07800380
0F800780
0F800F80
1F800F00
3FC01F00
FFFFFF00
00000300
ENDCHAR
STARTCHAR 00CA
ENCODING 202
SWIDTH 710 0
DWIDTH 27 0
BBX 31 41 -1 -2
BITMAP
000001E0
000007E0
00000FE0
00003E60
00007060
00018060
00000000
00000000
0000003C
007FFFFC
003FFFFC
001F803E
000F001E
001F001E
001E000E
001E0006
003E0002
003C0000
003C0000
007C0000
00780400
00780400
00F80C00
00FFFC00
00FFFC00
00F80C00
01F00400
01E00000
01E00000
03E00000
03C00000
03C00180
07C00180
07C00380
07800380
0F800780
0F800F80
1F800F00
3FC01F00
FFFFFF00
00000300
ENDCHAR
STARTCHAR 00CB
ENCODING 203
SWIDTH 710 0
DWIDTH 27 0
BBX 31 41 -1 -2
BITMAP
000071C0
0000F3C0
0001F3C0
0001F3C0
0000E180
00000000
00000000
00000000
0000000C
000000FC
007FFFFC
001F803C
000F003E
001F001E
001F000E
001E0006
003E0006
003E0000
003C0000
007C0000
007C0400
00780400
00780C00
00FFFC00
00FFFC00
00F80C00
01F00400
01E00000
01E00000
03E00000
03C00000
03C00180
07C00180
07C00380
07800380
0F800780
0F800F80
1F800F00
3FC01F00
FFFFFF00
00000300
ENDCHAR
STARTCHAR 00CC
ENCODING 204
SWIDTH 394 0
DWIDTH 15 0
BBX 20 41 -1 0
BITMAP
000600
000E00
000F00
000F00
000700
000380
000180
0000C0
000000
000000
000000
007FF0
003FE0
001F80
001F00
001F00
001E00
001E00
003E00
003E00
003C00
007C00
007C00
007800
00F800
00F800
00F000
01F000
01F000
01E000
03E000
03E000
03C000
03C000
07C000
07C000
078000
0F8000
0F8000
3FC000
FFE000
ENDCHAR
STARTCHAR 00CD
ENCODING 205
SWIDTH 394 0
DWIDTH 15 0
BBX 21 39 -1 0
BITMAP
000070
0000F8
0001F8
0003E0
000780
000C00
000000
000000
000000
007FF0
003FE0
001F80
001F00
001F00
001E00
001E00
003E00
003E00
003C00
007C00
007C00
007800
00F800
00F800
00F000
01F000
01F000
01E000
03E000
03E000
03C000
03C000
07C000
07C000
078000
0F8000
0F8000
3FC000
FFE000
ENDCHAR
STARTCHAR 00CE
ENCODING 206
SWIDTH 394 0
DWIDTH 15 0
BBX 21 39 -1 0
BITMAP
000078
0001F8
0003F8
000F18
001C18
006018
000000
000000
000000
007FF0
003FE0
001F80
001F00
001F00
001E00
001E00
003E00
003E00
003C00
007C00
007C00
007800
00F800
00F800
00F000
01F000
01F000
01E000
03E000
03E000
03C000
03C000
07C000
07C000
078000
0F8000
0F8000
3FC000
FFE000
ENDCHAR
STARTCHAR 00CF
ENCODING 207
SWIDTH 394 0
DWIDTH 15 0
BBX 20 40 -1 0
BITMAP
001C70
003CF0
007DF0
007DF0
0038E0
000000
000000
000000
000000
000000
007FF0
001FC0
000F00
001F00
001F00
001E00
003E00
003E00
003C00
007C00
007C00
007800
007800
00F800
00F000
00F000
01F000
01F000
01E000
03E000
03E000
03C000
07C000
07C000
078000
0F8000
0F8000
1F8000
3FC000
FFE000
ENDCHAR
STARTCHAR 00D1
ENCODING 209
SWIDTH 868 0
DWIDTH 33 0
BBX 38 41 -1 -1
BITMAP
0000070000
00000F8600
00001DCE00
000038FC00
0000107800
0000000000
0000000000
0000000000
0000000000
0000000000
007FE007FC
001FF003F0
000DF001E0
001DF001C0
001CF001C0
0018F801C0
0038F80380
0038F80380
0038780380
00707C0300
00707C0700
00707C0700
00603C0700
00E03E0E00
00E03E0E00
00C03E0E00
01C01E0C00
01C01E1C00
01C01F1C00
03801F1800
03800F1800
03800F3800
07000FB800
07000FB000
070007B000
0F0007F000
0E0007E000
1F0007E000
3F8003E000
FFC0038000
0000030000
ENDCHAR
STARTCHAR 00D2
ENCODING 210
SWIDTH 842 0
DWIDTH 32 0
BBX 30 41 2 0
BITMAP
00001000
00003800
00007800
00007C00
00003C00
00001C00
00000E00
00000600
00000000
00000000
00000000
0003F800
000FFE00
003E07C0
00FC03E0
01F801E0
03E001F0
07C001F0
0F8001F8
1F0000F8
1F0000F8
3F0000FC
7E0000FC
7E0000FC
7E0000F8
7C0000F8
FC0001F8
FC0001F8
FC0001F8
FC0003F0
FC0003F0
FC0003E0
FC0007C0
7C0007C0
7C000F80
7C001F00
3E003E00
3E007C00
1E00F800
0783E000
00FF8000
ENDCHAR
STARTCHAR 00D3
ENCODING 211
SWIDTH 842 0
DWIDTH 32 0
BBX 30 39 2 0
BITMAP
000001C0
000003C0
000007C0
00000F80
00001E00
00003000
00000000
00000000
00000000
0003F800
000FFE00
003E07C0
00FC03E0
01F801E0
03E001F0
07C001F0
0F8001F8
1F0000F8
1F0000F8
3F0000FC
7E0000FC
7E0000FC
7E0000F8
7C0000F8
FC0001F8
FC0001F8
FC0001F8
FC0003F0
FC0003F0
FC0003E0
FC0007C0
7C0007C0
7C000F80
7C001F00
3E003E00
3E007C00
1E00F800
0783E000
00FF8000
ENDCHAR
STARTCHAR 00D4
ENCODING 212
SWIDTH 842 0
DWIDTH 32 0
BBX 30 39 2 0
BITMAP
000001C0
000007C0
00000FC0
00003C40
00007040
00018040
00000000
00000000
00000000
0003F800
000FFE00
003E07C0
00FC03E0
01F801E0
03E001F0
07C001F0
0F8001F8
1F0000F8
1F0000F8
3F0000FC
7E0000FC
7E0000FC
7E0000F8
7C0000F8
FC0001F8
FC0001F8
FC0001F8
FC0003F0
FC0003F0
FC0003E0
FC0007C0
7C0007C0
7C000F80
7C001F00
3E003E00
3E007C00
1E00F800
0783E000
00FF8000
ENDCHAR
STARTCHAR 00D5
ENCODING 213
SWIDTH 842 0
DWIDTH 32 0
BBX 30 40 2 0
BITMAP
00007020
0000F870
0001DCE0
00038FC0
00010780
00000000
00000000
00000000
00000000
00000000
0007FC00
001F0F00
007C03E0
00F801E0
01F001F0
03E001F0
078001F0
0F8000F8
1F0000F8
3F0000FC
3F0000FC
7E0000FC
7E0000F8
7E0000F8
FC0001F8
FC0001F8
FC0001F8
FC0003F0
FC0003F0
FC0003E0
FC0007E0
FC0007C0
7C000780
7C000F00
3C001E00
3E003C00
3E007800
0F01F000
03FFC000
007F0000
ENDCHAR
STARTCHAR 00D6
ENCODING 214
SWIDTH 842 0
DWIDTH 32 0
BBX 30 40 2 0
BITMAP
000071C0
0000F3C0
0001F7C0
0001F7C0
0000E380
00000000
00000000
00000000
00000000
00000000
0007FC00
001F0F00
007C03E0
00F801E0
01F001F0
03E001F0
078001F0
0F8000F8
1F0000F8
3F0000FC
3F0000FC
7E0000FC
7E0000F8
7E0000F8
FC0001F8
FC0001F8
FC0001F8
FC0003F0
FC0003F0
FC0003E0
FC0007E0
FC0007C0
7C000780
7C000F00
3C001E00
3E003C00
3E007800
0F01F000
03FFC000
007F0000
ENDCHAR
STARTCHAR 00D7
ENCODING 215
SWIDTH 631 0
DWIDTH 24 0
BBX 18 18 3 3
BITMAP
100100
300380
7807C0
7C0FC0
3E0F80
1F1E00
0F3C00
03F800
01F000
01E000
03F000
07BC00
1F1E00
3E1F00
7C0F80
F807C0
780380
300100
ENDCHAR
STARTCHAR 00D8
ENCODING 216
SWIDTH 947 0
DWIDTH 36 0
BBX 30 36 3 -3
BITMAP
00000020
00000040
000000C0
0003F880
000FFF80
003F03C0
007C03F0
00F807F0
01F00DF0
03C008F8
078018F8
0F8010FC
1F0020FC
1F0060FC
3F0040FC
7E00C0FC
7E0180FC
7E0100FC
7C0300F8
7C0201F8
FC0401F8
FC0C01F8
FC0803F0
FC1803E0
7C3003E0
7E2007C0
3E600F80
3EC01F00
3E803E00
1F807C00
0F80F000
03FFC000
067F0000
04000000
0C000000
18000000
ENDCHAR
STARTCHAR 00D9
ENCODING 217
SWIDTH 842 0
DWIDTH 32 0
BBX 33 41 3 0
BITMAP
0000300000
0000700000
0000780000
0000780000
0000380000
00001C0000
00000C0000
0000060000
0000000000
0000000000
0000000000
0FFC03FF80
07F801FE00
03F000FC00
03E000F800
03C000F000
07C000F000
07C001F000
078001E000
0F8001E000
0F8001E000
0F0003C000
1F0003C000
1F0003C000
1E00038000
3E00078000
3E00078000
3C00070000
7C00070000
7C000F0000
78000E0000
F8000E0000
F8000E0000
F8001C0000
F800380000
F800380000
F800700000
7C00E00000
3C01C00000
1F0F800000
03FE000000
ENDCHAR
STARTCHAR 00DA
ENCODING 218
SWIDTH 842 0
DWIDTH 32 0
BBX 33 39 3 0
BITMAP
0000038000
000007C000
00000FC000
00001F0000
00003C0000
0000600000
0000000000
0000000000
0000000000
0FFC03FF80
07F801FE00
03F000FC00
03E000F800
03C000F000
07C000F000
07C001F000
078001E000
0F8001E000
0F8001E000
0F0003C000
1F0003C000
1F0003C000
1E00038000
3E00078000
3E00078000
3C00070000
7C00070000
7C000F0000
78000E0000
F8000E0000
F8000E0000
F8001C0000
F800380000
F800380000
F800700000
7C00E00000
3C01C00000
1F0F800000
03FE000000
ENDCHAR
STARTCHAR 00DB
ENCODING 219
SWIDTH 842 0
DWIDTH 32 0
BBX 33 39 3 0
BITMAP
000003C000
00000FC000
00001FC000
00007CC000
0000E0C000
000300C000
0000000000
0000000000
0000000000
0FFC03FF80
07F801FE00
03F000FC00
03E000F800
03C000F000
07C000F000
07C001F000
078001E000
0F8001E000
0F8001E000
0F0003C000
1F0003C000
1F0003C000
1E00038000
3E00078000
3E00078000
3C00070000
7C00070000
7C000F0000
78000E0000
F8000E0000
F8000E0000
F8001C0000
F800380000
F800380000
F800700000
7C00E00000
3C01C00000
1F0F800000
03FE000000
ENDCHAR
STARTCHAR 00DC
ENCODING 220
SWIDTH 842 0
DWIDTH 32 0
BBX 33 40 3 0
BITMAP
0000E38000
0001E78000
0003E78000
0003E78000
0001C30000
0000000000
0000000000
0000000000
0000000000
0000000000
0FFC03FF80
07F001FE00
03E000F800
03C000F800
07C000F000
07C000F000
078001F000
0F8001E000
0F8001E000
0F0001E000
1F0003C000
1F0003C000
1E0003C000
3E00038000
3E00078000
3C00078000
7C00070000
7C00070000
78000F0000
F8000E0000
F8000E0000
F8001C0000
F8001C0000
F800380000
F800700000
F800700000
7C00E00000
3E07C00000
1FFF800000
01FC000000
ENDCHAR
STARTCHAR 00DD
ENCODING 221
SWIDTH 763 0
DWIDTH 29 0
BBX 28 39 5 0
BITMAP
00001800
00003C00
00007C00
0000F800
0001C000
00030000
00000000
00000000
00000000
3FE03FF0
1FC01FC0
0F800F80
0F800E00
0F800E00
07801C00
07803800
07C07000
07C0E000
03C1C000
03C38000
03C30000
03C60000
03CE0000
01FC0000
01F80000
01F00000
01E00000
01E00000
03E00000
03E00000
03C00000
07C00000
07C00000
07C00000
07800000
0F800000
0F800000
3FC00000
FFE00000
ENDCHAR
STARTCHAR 00DF
ENCODING 223
SWIDTH 763 0
DWIDTH 29 0
BBX 38 42 -9 -12
BITMAP
0000000F00
0000003FE0
0000007FE0
000000F0F0
000000E070
000001C078
0000038078
0000078078
00000F0078
00001F01FC
0003FE1FFC
0003FE1E00
00003C3C00
00007C3C00
00007C3C00
0000783C00
0000F83E00
0000F03E00
0001F03E00
0001E03E00
0003E01E00
0003C01F00
0007C01F00
0007DC1F00
000FBE1F00
000FBE1F00
000F3E3E00
001F3E7C00
001E3FF800
003E0FC000
003C000000
007C000000
007C000000
00F8000000
00F8000000
70F0000000
F1F0000000
F1E0000000
F3C0000000
FF00000000
FE00000000
1800000000
ENDCHAR
STARTCHAR 00E0
ENCODING 224
SWIDTH 710 0
DWIDTH 27 0
BBX 25 32 2 0
BITMAP
00180000
003C0000
003C0000
003C0000
001E0000
000E0000
00070000
00030000
00000000
00000000
00000000
00300800
00FF0C00
01FF9C00
03E1B800
0FC1F800
1F80F000
3F00F000
3E00F000
3E01E000
7C01E000
7C03C000
F807C180
F80F8380
F00F8700
F01F0E00
F83F1C00
F87E3800
78EE7000
7FCFE000
7F8FC000
1F060000
ENDCHAR
STARTCHAR 00E1
ENCODING 225
SWIDTH 710 0
DWIDTH 27 0
BBX 25 30 2 0
BITMAP
00001800
00003C00
00007C00
0000F800
0001C000
00030000
00000000
00000000
00000000
00300800
00FF0C00
01FF9C00
03E1B800
0FC1F800
1F80F000
3F00F000
3E00F000
3E01E000
7C01E000
7C03C000
F807C180
F80F8380
F00F8700
F01F0E00
F83F1C00
F87E3800
78EE7000
7FCFE000
7F8FC000
1F060000
ENDCHAR
STARTCHAR 00E2
ENCODING 226
SWIDTH 710 0
DWIDTH 27 0
BBX 25 30 2 0
BITMAP
00003C00
00007C00
0001FC00
0003CC00
000E0C00
00180C00
00000000
00000000
00000000
00300800
00FF0C00
01FF9C00
03E1B800
0FC1F800
1F80F000
3F00F000
3E00F000
3E01E000
7C01E000
7C03C000
F807C180
F80F8380
F00F8700
F01F0E00
F83F1C00
F87E3800
78EE7000
7FCFE000
7F8FC000
1F060000
ENDCHAR
STARTCHAR 00E3
ENCODING 227
SWIDTH 710 0
DWIDTH 27 0
BBX 25 30 2 0
BITMAP
00078200
000FC700
001CEE00
00187C00
00000000
00000000
00000000
00000000
00000000
00300800
00FF0C00
01FF9C00
03E1B800
0FC1F800
1F80F000
3F00F000
3E00F000
3E01E000
7C01E000
7C03C000
F807C180
F80F8380
F00F8700
F01F0E00
F83F1C00
F87E3800
78EE7000
7FCFE000
7F8FC000
1F060000
ENDCHAR
STARTCHAR 00E4
ENCODING 228
SWIDTH 710 0
DWIDTH 27 0
BBX 25 30 2 0
BITMAP
000E3C00
001E7C00
001E7C00
000E3800
00000000
00000000
00000000
00000000
00000000
00300800
00FF0C00
01FF9C00
03E1B800
0FC1F800
1F80F000
3F00F000
3E00F000
3E01E000
7C01E000
7C03C000
F807C180
F80F8380
F00F8700
F01F0E00
F83F1C00
F87E3800
78EE7000
7FCFE000
7F8FC000
1F060000
ENDCHAR
STARTCHAR 00E5
ENCODING 229
SWIDTH 710 0
DWIDTH 27 0
BBX 25 32 2 0
BITMAP
00018000
0003C000
00066000
000C1000
000C1000
00043000
0003E000
0001C000
00000000
00000000
00000000
00300800
00FF0C00
01FF9C00
03E1B800
0FC1F800
1F80F000
3F00F000
3E00F000
3E01E000
7C01E000
7C03C000
F807C180
F80F8380
F00F8700
F01F0E00
F83F1C00
F87E3800
78EE7000
7FCFE000
7F8FC000
1F060000
ENDCHAR
STARTCHAR 00E6
ENCODING 230
SWIDTH 921 0
DWIDTH 35 0
BBX 33 21 2 0
BITMAP
0030006000
00FF01FE00
01FF83FF00
03E1878F00
0FC1FF0F80
1F80FE0F80
3F00FC0F80
3E00F80F80
3E01F03E00
7C01F7FC00
7C03E7F000
F807E00000
F80FC00800
F00FC01C00
F01FC03800
F83FC07000
F877E0E000
78E5E1C000
7FCCFF8000
7F8C7F0000
1F087C0000
ENDCHAR
STARTCHAR 00E7
ENCODING 231
SWIDTH 552 0
DWIDTH 21 0
BBX 19 32 2 -11
BITMAP
001C00
007FC0
01FFC0
03E1E0
0FC1E0
0F81E0
1F01E0
1E01E0
3E0000
3C0000
7C0000
780000
F80200
F00700
F00E00
F81C00
F83800
787000
7FE000
7FC000
1F8000
030000
060000
0C0000
0C0000
0E0000
060000
060000
C60000
CE0000
7C0000
7C0000
ENDCHAR
STARTCHAR 00E8
ENCODING 232
SWIDTH 552 0
DWIDTH 21 0
BBX 19 32 2 0
BITMAP
001800
003C00
003C00
003C00
001E00
000E00
000700
000300
000000
000000
000000
001C00
007FC0
01FFC0
03E1E0
0FC1E0
0F81E0
1F01E0
1E01E0
3E07C0
3DFF00
7DFE00
780000
F80200
F00700
F00E00
F81C00
F83800
787000
7FE000
7FC000
1F0000
ENDCHAR
STARTCHAR 00E9
ENCODING 233
SWIDTH 552 0
DWIDTH 21 0
BBX 19 30 2 0
BITMAP
0000C0
0001E0
0003E0
0007C0
000E00
001800
000000
000000
000000
001C00
007FC0
01FFC0
03E1E0
0FC1E0
0F81E0
1F01E0
1E01E0
3E07C0
3DFF00
7DFE00
780000
F80200
F00700
F00E00
F81C00
F83800
787000
7FE000
7FC000
1F0000
ENDCHAR
STARTCHAR 00EA
ENCODING 234
SWIDTH 552 0
DWIDTH 21 0
BBX 19 30 2 0
BITMAP
0001E0
0003E0
000FE0
001E60
007060
00C060
000000
000000
000000
001C00
007FC0
01FFC0
03E1E0
0FC1E0
0F81E0
1F01E0
1E01E0
3E07C0
3DFF00
7DFE00
780000
F80200
F00700
F00E00
F81C00
F83800
787000
7FE000
7FC000
1F0000
ENDCHAR
STARTCHAR 00EB
ENCODING 235
SWIDTH 552 0
DWIDTH 21 0
BBX 19 30 2 0
BITMAP
0071E0
00F3E0
00F3E0
00F1C0
000000
000000
000000
000000
000000
001C00
007FC0
01FFC0
03E1E0
0FC1E0
0F81E0
1F01E0
1E01E0
3E07C0
3DFF00
7DFE00
780000
F80200
F00700
F00E00
F81C00
F83800
787000
7FE000
7FC000
1F0000
ENDCHAR
STARTCHAR 00EC
ENCODING 236
SWIDTH 447 0
DWIDTH 17 0
BBX 17 32 0 0
BITMAP
000C00
001E00
001E00
001E00
000F00
000700
000380
000180
000000
000000
000000
003C00
01FE00
03FE00
073E00
0E3C00
1C7C00
38F800
70F000
E1F000
41E000
03E000
07C300
078700
0F8E00
0F1C00
1F3800
3E7000
3CE000
3FC000
3F8000
1E0000
ENDCHAR
STARTCHAR 00ED
ENCODING 237
SWIDTH 447 0
DWIDTH 17 0
BBX 20 30 0 0
BITMAP
000060
0000F0
0001F0
0003E0
000780
000C00
000000
000000
000000
001800
00FE00
01FE00
03BE00
073C00
0E7C00
1C7800
38F800
71F000
E1E000
43E000
03C300
07C700
0F8F00
0F1E00
1F3C00
1E7800
3EF000
3FE000
3FC000
3F0000
ENDCHAR
STARTCHAR 00EE
ENCODING 238
SWIDTH 447 0
DWIDTH 17 0
BBX 20 30 0 0
BITMAP
0000F0
0001F0
0007F0
000F30
003C30
006030
000000
000000
000000
001800
00FE00
01FE00
03BE00
073C00
0E7C00
1C7800
38F800
71F000
E1E000
43E000
03C300
07C700
0F8F00
0F1E00
1F3C00
1E7800
3EF000
3FE000
3FC000
3F0000
ENDCHAR
STARTCHAR 00EF
ENCODING 239
SWIDTH 447 0
DWIDTH 17 0
BBX 19 30 0 0
BITMAP
0038E0
0079E0
0079E0
0079E0
0030C0
000000
000000
000000
000000
001800
00FE00
01FE00
03BE00
073C00
0E7C00
1C7800
38F800
71F000
E1E000
43E000
03C300
07C700
0F8F00
0F1E00
1F3C00
1E7800
3EF000
3FE000
3FC000
3F0000
ENDCHAR
STARTCHAR 00F1
ENCODING 241
SWIDTH 763 0
DWIDTH 29 0
BBX 28 30 0 0
BITMAP
0000F040
0001F8E0
00039DC0
00030F80
00000000
00000000
00000000
00000000
00000000
00180E00
00FC7FC0
01FCFFC0
03B9EFC0
073B87C0
0E7707C0
1C7E0FC0
78FC0F80
F0F81F00
61F03F00
03E03E00
03E07C30
07C07C70
07C0F8E0
0F80F1C0
0F81F380
1F03E700
1F03EE00
3E03FC00
3E03F800
1C01E000
ENDCHAR
STARTCHAR 00F2
ENCODING 242
SWIDTH 631 0
DWIDTH 24 0
BBX 21 32 2 0
BITMAP
000400
000E00
001E00
001F00
000F00
000700
000380
000180
000000
000000
000000
001C00
007FC0
01FFC0
03E1E0
0FC1E0
0F80F0
1F00F0
1E00F8
3E00F0
3C01F0
7C01E0
7803E0
F803C0
F007C0
F00F80
781F80
783F00
387E00
3FF800
1FE000
0FC000
ENDCHAR
STARTCHAR 00F3
ENCODING 243
SWIDTH 631 0
DWIDTH 24 0
BBX 21 30 2 0
BITMAP
000070
0000F0
0001F0
0003E0
000700
000C00
000000
000000
000000
001C00
007FC0
01FFC0
03E1E0
0FC1E0
0F80F0
1F00F0
1E00F8
3E00F0
3C01F0
7C01E0
7803E0
F803C0
F007C0
F00F80
781F80
783F00
387E00
3FF800
1FE000
0FC000
ENDCHAR
STARTCHAR 00F4
ENCODING 244
SWIDTH 631 0
DWIDTH 24 0
BBX 21 30 2 0
BITMAP
0000F0
0001F0
0007F0
000F10
003810
006010
000000
000000
000000
001C00
007FC0
01FFC0
03E1E0
0FC1E0
0F80F0
1F00F0
1E00F8
3E00F0
3C01F0
7C01E0
7803E0
F803C0
F007C0
F00F80
781F80
783F00
387E00
3FF800
1FE000
0FC000
ENDCHAR
STARTCHAR 00F5
ENCODING 245
SWIDTH 631 0
DWIDTH 24 0
BBX 22 30 2 0
BITMAP
001E08
003F1C
0073B8
0061F0
000000
000000
000000
000000
000000
001C00
007FC0
01FFC0
03E1E0
0FC1E0
0F80F0
1F00F0
1E00F8
3E00F0
3C01F0
7C01E0
7803E0
F803C0
F007C0
F00F80
781F80
783F00
387E00
3FF800
1FE000
0FC000
ENDCHAR
STARTCHAR 00F6
ENCODING 246
SWIDTH 631 0
DWIDTH 24 0
BBX 21 30 2 0
BITMAP
003CF0
007DF0
007DF0
0038E0
000000
000000
000000
000000
000000
001C00
007FC0
01FFC0
03E1E0
0FC1E0
0F80F0
1F00F0
1E00F8
3E00F0
3C01F0
7C01E0
7803E0
F803C0
F007C0
F00F80
781F80
783F00
387E00
3FF800
1FE000
0FC000
ENDCHAR
STARTCHAR 00F7
ENCODING 247
SWIDTH 473 0
DWIDTH 18 0
BBX 14 17 3 3
BITMAP
0300
0780
0780
0780
0300
0000
0000
0000
FFFC
0000
0000
0000
0300
0780
0780
0780
0300
ENDCHAR
STARTCHAR 00F8
ENCODING 248
SWIDTH 552 0
DWIDTH 21 0
BBX 21 27 2 -3
BITMAP
000010
000030
000060
001C40
007FC0
01FFC0
03E1E0
0FC3E0
0F86F0
1F0CF0
1E08F8
3E10F0
3C31F0
7C61E0
7843E0
F883C0
F187C0
F30F80
7A1F80
7E3F00
3C7E00
3FF800
1FE000
3FC000
600000
400000
800000
ENDCHAR
STARTCHAR 00F9
ENCODING 249
SWIDTH 763 0
DWIDTH 29 0
BBX 28 32 0 0
BITMAP
00002000
00007000
0000F000
0000F800
00007800
00003800
00001C00
00000C00
00000000
00000000
00000000
00180000
00FE01C0
01FE03E0
03BE03E0
073C07C0
0E7C0FC0
1CF80F80
38F01F80
F1F01F00
63E03E00
03C03E00
07C07C30
0780FC70
0F81F8E0
1F03F1C0
1F07F380
0F0FE700
0F9DEE00
0FF9FC00
07F1F800
01E0E000
ENDCHAR
STARTCHAR 00FA
ENCODING 250
SWIDTH 763 0
DWIDTH 29 0
BBX 28 30 0 0
BITMAP
00000380
00000780
00000F80
00001F00
00003C00
00006000
00000000
00000000
00000000
00180000
00FE01C0
01FE03E0
03BE03E0
073C07C0
0E7C0FC0
1CF80F80
38F01F80
F1F01F00
63E03E00
03C03E00
07C07C30
0780FC70
0F81F8E0
1F03F1C0
1F07F380
0F0FE700
0F9DEE00
0FF9FC00
07F1F800
01E0E000
ENDCHAR
STARTCHAR 00FB
ENCODING 251
SWIDTH 763 0
DWIDTH 29 0
BBX 28 30 0 0
BITMAP
00000780
00000F80
00003F80
00007880
0001E080
00030080
00000000
00000000
00000000
00180000
00FE01C0
01FE03E0
03BE03E0
073C07C0
0E7C0FC0
1CF80F80
38F01F80
F1F01F00
63E03E00
03C03E00
07C07C30
0780FC70
0F81F8E0
1F03F1C0
1F07F380
0F0FE700
0F9DEE00
0FF9FC00
07F1F800
01E0E000
ENDCHAR
STARTCHAR 00FC
ENCODING 252
SWIDTH 763 0
DWIDTH 29 0
BBX 28 30 0 0
BITMAP
0001E780
0003EF80
0003EF80
0001C700
00000000
00000000
00000000
00000000
00000000
00180000
00FE01C0
01FE03E0
03BE03E0
073C07C0
0E7C0FC0
1CF80F80
38F01F80
F1F01F00
63E03E00
03C03E00
07C07C30
0780FC70
0F81F8E0
1F03F1C0
1F07F380
0F0FE700
0F9DEE00
0FF9FC00
07F1F800
01E0E000
ENDCHAR
STARTCHAR 00FD
ENCODING 253
SWIDTH 684 0
DWIDTH 26 0
BBX 27 42 0 -12
BITMAP
00000380
000007C0
00000FC0
00001F00
00003C00
00006000
00000000
00000000
00000000
00180000
00FE01C0
01FE03E0
03BE03E0
073C07C0
0E7C0FC0
1C780F80
38F81F00
F0F01F00
61F03E00
01E07C00
03E0FC00
03C1F800
07C3F800
0787F000
0F8EE000
0F1DE000
1F3BC000
1FF38000
1FE78000
0F870000
000E0000
001E0000
001C0000
00380000
00380000
70700000
F8E00000
F8C00000
F9800000
FF000000
FE000000
38000000
ENDCHAR
STARTCHAR 00FF
ENCODING 255
SWIDTH 684 0
DWIDTH 26 0
BBX 27 42 0 -12
BITMAP
0001E780
0003E780
0003E780
0001C700
00000000
00000000
00000000
00000000
00000000
00180000
00FE01C0
01FE03E0
03BE03E0
073C07C0
0E7C0FC0
1C780F80
38F81F00
F0F01F00
61F03E00
01E07C00
03E0FC00
03C1F800
07C3F800
0787F000
0F8EE000
0F1DE000
1F3BC000
1FF38000
1FE78000
0F870000
000E0000
001E0000
001C0000
00380000
00380000
70700000
F8E00000
F8C00000
F9800000
FF000000
FE000000
38000000
ENDCHAR
STARTCHAR 0131
ENCODING 305
SWIDTH 447 0
DWIDTH 17 0
BBX 16 21 0 0
BITMAP
0018
00FE
01FE
03BE
073C
0E7C
1C78
38F8
71F0
E1E0
43E0
03C3
07C7
0F8E
0F1C
1F38
1E70
3EE0
3FC0
3F80
3F00
ENDCHAR
STARTCHAR 0152
ENCODING 338
SWIDTH 1000 0
DWIDTH 38 0
BBX 39 33 2 -2
BITMAP
000000001C
0001FFFFFC
0007FFFFFC
001F07C07C
007C0F803C
00F80F801C
01F00F800E
03E00F000E
07801F0006
0F001F0000
1F001E0000
3F003E0000
3F003E0000
7E003C0400
7E003C0C00
7E007FFC00
FC007FFC00
FC007C1C00
FC00F80C00
FC00F00400
FC00F00000
FC00F00000
FC01F00000
FC01E00180
7C01E00380
7C01E00380
3E03C00700
3E03C00700
3F83C00F00
0FE7C01F00
01FFE01F00
003FFFFF00
0000000700
ENDCHAR
STARTCHAR 0153
ENCODING 339
SWIDTH 921 0
DWIDTH 35 0
BBX 33 21 2 0
BITMAP
001C00E000
007FC1FE00
01FFC7FF00
03E1FF8F00
0FC1FF0F80
0F80FE0F80
1F00FC0F80
1E00F80F80
3E00F03E00
3C01F7FC00
7C01E7F000
7803E00000
F803C00800
F007C01C00
F00FC03800
781FC07000
783FE0E000
387FE1C000
3FFBFF8000
1FE1FF0000
0FC07C0000
ENDCHAR
STARTCHAR 0178
ENCODING 376
SWIDTH 763 0
DWIDTH 29 0
BBX 28 40 5 0
BITMAP
000F3C00
001F7C00
001F7C00
001F7C00
000E3800
00000000
00000000
00000000
00000000
00000000
3FE03FF0
1FC00FC0
0F800700
0F800E00
07801C00
07803800
07807000
07C07000
07C0E000
03C1C000
03C38000
03C70000
03CE0000
01FC0000
01F80000
01F00000
01F00000
01E00000
01E00000
03E00000
03E00000
03C00000
07C00000
07C00000
07800000
07800000
0F800000
1F800000
3FC00000
FFE00000
ENDCHAR
STARTCHAR 0243
ENCODING 579
SWIDTH 763 0
DWIDTH 29 0
BBX 29 30 0 0
BITMAP
00FFFC00
007FFFE0
003F03F0
003E01F0
003E01F0
003C01F0
003C01F8
007C01F8
007803F0
007807E0
00F807C0
00F80F80
00F03E00
01FFF800
01FFFF00
01E03FC0
03E00FC0
03E00FC0
03C00FE0
07C007E0
07C007E0
7FF807E0
7FF80FC0
0F800F80
0F001F80
0F003F00
1F00FE00
1F03FC00
3FFFE000
FFFF0000
ENDCHAR
STARTCHAR 02C6
ENCODING 710
SWIDTH 842 0
DWIDTH 32 0
BBX 11 6 7 24
BITMAP
01E0
03E0
0FE0
1E60
7860
C060
ENDCHAR
STARTCHAR 02D8
ENCODING 728
SWIDTH 842 0
DWIDTH 32 0
BBX 11 5 6 23
BITMAP
C060
60C0
71C0
3F80
0E00
ENDCHAR
STARTCHAR 02DA
ENCODING 730
SWIDTH 842 0
DWIDTH 32 0
BBX 8 8 8 24
BITMAP
18
3C
42
C3
C3
66
3C
18
ENDCHAR
STARTCHAR 02DC
ENCODING 732
SWIDTH 842 0
DWIDTH 32 0
BBX 13 5 10 25
BITMAP
3C10
7E38
E770
C3E0
01C0
ENDCHAR
STARTCHAR 2013
ENCODING 8211
SWIDTH 473 0
DWIDTH 18 0
BBX 12 2 3 10
BITMAP
FFF0
FFF0
ENDCHAR
STARTCHAR 2014
ENCODING 8212
SWIDTH 789 0
DWIDTH 30 0
BBX 24 2 3 10
BITMAP
FFFFFF
FFFFFF
ENDCHAR
STARTCHAR 2018
ENCODING 8216
SWIDTH 210 0
DWIDTH 8 0
BBX 7 10 2 21
BITMAP
06
0E
1C
3C
78
F8
F8
F0
F0
60
ENDCHAR
STARTCHAR 2019
ENCODING 8217
SWIDTH 210 0
DWIDTH 8 0
BBX 7 9 5 21
BITMAP
1C
1E
3E
3E
7C
78
70
E0
C0
ENDCHAR
STARTCHAR 201A
ENCODING 8218
SWIDTH 210 0
DWIDTH 8 0
BBX 7 9 -3 -8
BITMAP
06
0E
1E
3C
7C
F8
F8
F8
70
ENDCHAR
STARTCHAR 201C
ENCODING 8220
SWIDTH 447 0
DWIDTH 17 0
BBX 13 10 5 21
BITMAP
0208
0618
0C30
1C70
3CF0
79E0
FBE0
F3C0
F3C0
6180
ENDCHAR
STARTCHAR 201D
ENCODING 8221
SWIDTH 368 0
DWIDTH 14 0
BBX 13 9 5 21
BITMAP
1C30
1E78
3EF8
3EF8
7DF0
79E0
71C0
E380
C300
ENDCHAR
STARTCHAR 201E
ENCODING 8222
SWIDTH 447 0
DWIDTH 17 0
BBX 13 9 -3 -8
BITMAP
0618
0E38
1E78
3CF0
7DF0
FBE0
FBE0
FBE0
71C0
ENDCHAR
STARTCHAR 2020
ENCODING 8224
SWIDTH 447 0
DWIDTH 17 0
BBX 16 32 2 0
BITMAP
0030
0078
00F8
00F0
00F0
00E0
00E0
00C0
01C0
4182
FDBF
FFFF
FDBF
4102
0300
0300
0700
0600
0E00
0E00
0E00
1C00
1C00
3C00
3C00
3800
7800
7800
F800
F000
F000
6000
ENDCHAR
STARTCHAR 2021
ENCODING 8225
SWIDTH 447 0
DWIDTH 17 0
BBX 20 32 -2 0
BITMAP
000300
000780
000F80
000F00
000F00
000E00
000E00
000C00
001C00
041820
0FDBF0
0FFFF0
0FDBF0
041020
003000
002000
006000
006000
204100
7EDF80
FFFF80
7FFF80
308300
018000
018000
038000
038000
078000
070000
0F0000
0F0000
060000
ENDCHAR
STARTCHAR 2022
ENCODING 8226
SWIDTH 447 0
DWIDTH 17 0
BBX 11 11 3 6
BITMAP
1C00
3F00
3F80
7FE0
FFE0
FFE0
FFE0
FFC0
7F80
3F80
0F00
ENDCHAR
STARTCHAR 2026
ENCODING 8230
SWIDTH 631 0
DWIDTH 24 0
BBX 24 6 0 0
BITMAP
70381C
7C3E1F
FC7E3F
FC7E3F
F87C3F
381C0E
ENDCHAR
STARTCHAR 2030
ENCODING 8240
SWIDTH 1131 0
DWIDTH 43 0
BBX 42 34 0 -2
BITMAP
000000380000
000000700000
007C00E00000
03FE01C00000
07CF01C00000
078F03800000
0F0F07000000
0F0F8E000000
1E0F0E000000
3E1F1C000000
3C1E38000000
3C3E70000000
3C3CF0000000
3C78E0000000
1E79C0000000
1FF380000000
0F8700000000
00070F801F00
000E7FC0FF80
001CF3C1F780
0038F1C1E3C0
0079E1E3C3C0
0073E1E3C3C0
00E3C1E783C0
01C7C3EF87C0
038783CF0780
038F879F0F80
0707878F0F00
0E078F0F1E00
1C079F0F1E00
1C03FE07BC00
3803F803F000
700000000000
E00000000000
ENDCHAR
STARTCHAR 2044
ENCODING 8260
SWIDTH 289 0
DWIDTH 11 0
BBX 28 33 -6 -1
BITMAP
00000070
00000070
000000E0
000001C0
00000380
00000780
00000700
00000E00
00001C00
00003800
00003800
00007000
0000E000
0001C000
0001C000
00038000
00070000
000E0000
001E0000
001C0000
00380000
00700000
00E00000
00E00000
01C00000
03800000
07000000
0F000000
0E000000
1C000000
38000000
70000000
F0000000
ENDCHAR
STARTCHAR 20AC
ENCODING 8364
SWIDTH 763 0
DWIDTH 29 0
BBX 32 31 0 -1
BITMAP
00007F00
0001F1E0
0007C0F8
000F807E
001F003E
003E003F
0078003E
00F0003C
01F00038
03F00000
03E00000
07E00000
3FFFFE00
07E00000
0FC00000
0FC00000
0FC00000
1F800000
FFFFC000
FFFFC000
1F800000
0F800000
0F800060
0FC000E0
07C001C0
07C00380
03C00F00
03E01E00
00F87800
003FF000
000FC000
ENDCHAR
STARTCHAR 2212
ENCODING 8722
SWIDTH 552 0
DWIDTH 21 0
BBX 18 3 2 11
BITMAP
FFFFC0
FFFFC0
FFFFC0
ENDCHAR
STARTCHAR 2248
ENCODING 8776
SWIDTH 842 0
DWIDTH 32 0
BBX 16 14 8 6
BITMAP
0E00
1F07
3F8F
7FFE
F1FC
E0F8
0000
0000
0F02
1F87
3FDE
7BFC
F1F8
40F0
ENDCHAR
STARTCHAR 2260
ENCODING 8800
SWIDTH 526 0
DWIDTH 20 0
BBX 18 19 0 2
BITMAP
000E00
001E00
001C00
001C00
003800
FFFFC0
FFFFC0
FFFFC0
00E000
00E000
01C000
FFFFC0
FFFFC0
FFFFC0
070000
070000
0E0000
0E0000
1C0000
ENDCHAR
STARTCHAR 2264
ENCODING 8804
SWIDTH 526 0
DWIDTH 20 0
BBX 18 26 2 0
BITMAP
000200
000E00
001F00
007E00
00FC00
01F000
07C000
0F0000
3C0000
780000
600000
700000
7C0000
1F0000
0F8000
03E000
01F800
007E00
003F00
000F00
000600
000000
000000
FFFFC0
FFFFC0
FFFFC0
ENDCHAR
STARTCHAR 2265
ENCODING 8805
SWIDTH 526 0
DWIDTH 20 0
BBX 18 25 0 1
BITMAP
380000
3C0000
3F0000
0F8000
03E000
01F000
007C00
001E00
000780
000180
000380
000F80
003E00
007C00
01F000
07E000
1F8000
3F0000
3C0000
180000
000000
000000
FFFFC0
FFFFC0
FFFFC0
ENDCHAR
STARTCHAR 25CA
ENCODING 9674
SWIDTH 552 0
DWIDTH 21 0
BBX 18 30 2 0
BITMAP
01C000
03E000
037000
077000
063800
0E3800
1C1C00
1C1C00
380E00
380F00
780700
700780
F00380
E003C0
E003C0
E003C0
E003C0
F00380
700780
780700
380F00
380E00
1C1C00
1C1C00
0E3800
063800
073000
037000
03E000
01C000
ENDCHAR
STARTCHAR FB01
ENCODING 64257
SWIDTH 763 0
DWIDTH 29 0
BBX 39 44 -9 -12
BITMAP
0000000200
0000001FF0
0000007CFC
000000F81E
000001F03E
000003E03E
000003C07E
000007C00C
0000078000
00000F0000
00000F0000
00001E00C0
0003FFFFF0
0003FFFFF0
00003C01F0
00007C01E0
00007C03E0
00007803C0
0000F807C0
0000F00F80
0001F00F00
0001E01F00
0003E01E18
0003C03E38
0007C07C70
0007C078E0
000F80F9C0
000F80F380
000F01F700
001F01FE00
001E01FC00
003E00F000
003C000000
007C000000
007C000000
00F8000000
00F8000000
70F0000000
F1F0000000
F1E0000000
F3C0000000
FF00000000
FE00000000
1800000000
ENDCHAR
STARTCHAR FB02
ENCODING 64258
SWIDTH 789 0
DWIDTH 30 0
BBX 42 44 -9 -12
BITMAP
00000007FFC0
0000003FFFC0
0000007FFF80
000000F00F80
000001F00F00
000003E01F00
000003E01E00
000007C03E00
000007803C00
00000F807C00
00000F007800
00003E00F800
0003FFF8F800
0003FFF9F000
00003C01F000
00007C01E000
00007C03E000
00007803C000
0000F807C000
0000F0078000
0001F00F8000
0001E00F0000
0003E01F0600
0003C01E0E00
0007C03E1C00
0007C03C3800
000F807C7000
000F8078E000
000F00F9C000
001F00FF8000
001E00FF0000
003E00380000
003C00000000
007C00000000
007C00000000
00F800000000
00F800000000
70F000000000
F1F000000000
F1E000000000
F3C000000000
FF0000000000
FE0000000000
180000000000
ENDCHAR
ENDFONT
